<svg xmlns="http://www.w3.org/2000/svg" width="455" height="190" fill="none" viewBox="0 0 455 190">
  <path fill="#000" d="M81.491 37 104 66.9 81.873 83.383l4.578 6.134L64.705 106 38 69.583 81.491 37Zm302.51 135.057a.616.616 0 0 1-.451-.188.614.614 0 0 1-.188-.451c0-.176.062-.326.188-.451a.614.614 0 0 1 .451-.189c.175 0 .325.063.451.189a.615.615 0 0 1 .188.451.666.666 0 0 1-.32.554.614.614 0 0 1-.319.085Zm0 2a.616.616 0 0 1-.451-.188.614.614 0 0 1-.188-.451c0-.176.062-.326.188-.451a.614.614 0 0 1 .451-.189c.175 0 .325.063.451.189a.615.615 0 0 1 .188.451.666.666 0 0 1-.32.554.614.614 0 0 1-.319.085Zm0 2a.616.616 0 0 1-.451-.188.614.614 0 0 1-.188-.451c0-.176.062-.326.188-.451a.614.614 0 0 1 .451-.189c.175 0 .325.063.451.189a.615.615 0 0 1 .188.451.666.666 0 0 1-.32.554.614.614 0 0 1-.319.085Z"/>
  <rect width="135" height="14" x=".5" y=".5" fill="#fff" stroke="#4D1D95" rx="2.5"/>
  <path fill="#4D1D95" d="M54.667 3.727V11h-1.538V3.727h1.538Zm2.75 4.12V11h-1.514V5.545h1.442v.963h.064a1.52 1.52 0 0 1 .607-.753c.285-.187.629-.28 1.034-.28.379 0 .709.082.99.248.282.166.501.402.657.71.157.306.235.67.235 1.094V11h-1.513V7.797c.003-.334-.083-.594-.256-.781-.172-.19-.41-.284-.713-.284a1.09 1.09 0 0 0-.54.13.916.916 0 0 0-.362.384c-.086.166-.13.366-.132.6Zm4.707 5.199v-7.5h1.492v.916h.067a2 2 0 0 1 .288-.448 1.5 1.5 0 0 1 .497-.383c.206-.104.462-.157.767-.157.398 0 .765.105 1.1.313.337.206.606.517.807.934.201.414.302.934.302 1.559 0 .608-.098 1.122-.295 1.541-.194.417-.46.733-.795.948-.334.213-.708.32-1.123.32-.293 0-.543-.049-.749-.146a1.551 1.551 0 0 1-.5-.366 1.9 1.9 0 0 1-.299-.45h-.046v2.918h-1.513Zm1.481-4.773c0 .324.045.607.135.848.09.242.22.43.39.565a.982.982 0 0 0 .622.199.975.975 0 0 0 .625-.202c.17-.138.3-.327.387-.569a2.42 2.42 0 0 0 .135-.841 2.41 2.41 0 0 0-.131-.831 1.238 1.238 0 0 0-.387-.561.981.981 0 0 0-.629-.203 1 1 0 0 0-.625.196 1.22 1.22 0 0 0-.387.554c-.09.239-.135.52-.135.845Zm8.345.405V5.545h1.513V11h-1.452v-.99h-.057a1.61 1.61 0 0 1-.615.77c-.284.194-.63.291-1.04.291a1.83 1.83 0 0 1-.962-.249 1.709 1.709 0 0 1-.65-.706c-.154-.306-.232-.671-.235-1.098V5.545h1.513V8.75c.002.322.089.576.26.763.17.187.398.28.685.28.182 0 .353-.04.511-.124a.976.976 0 0 0 .384-.376 1.15 1.15 0 0 0 .145-.614Zm5.624-3.133v1.137H74.29V5.545h3.284ZM75.035 4.24h1.513v5.085c0 .14.021.248.064.327a.353.353 0 0 0 .178.16c.078.03.168.046.27.046.07 0 .141-.006.212-.018l.164-.032.238 1.125a4.27 4.27 0 0 1-.32.082 2.565 2.565 0 0 1-.5.06 2.3 2.3 0 0 1-.96-.145 1.338 1.338 0 0 1-.635-.518c-.151-.235-.226-.53-.224-.888V4.239ZM83.03 7.1l-1.385.085a.716.716 0 0 0-.153-.32.81.81 0 0 0-.309-.23 1.05 1.05 0 0 0-.45-.09c-.235 0-.433.05-.594.15-.16.097-.241.227-.241.39 0 .13.052.24.156.33.104.09.283.163.536.218l.987.198c.53.11.926.284 1.186.526.26.241.391.559.391.952 0 .357-.105.67-.316.94-.208.27-.495.481-.86.633-.362.149-.78.224-1.253.224-.722 0-1.297-.15-1.726-.451a1.757 1.757 0 0 1-.75-1.236l1.489-.078c.045.22.154.388.326.504.173.114.395.17.665.17.265 0 .478-.05.639-.152.163-.105.246-.238.248-.402a.418.418 0 0 0-.174-.337c-.113-.09-.288-.159-.525-.206l-.945-.188c-.532-.107-.929-.291-1.19-.554-.257-.263-.386-.598-.386-1.005 0-.35.094-.652.284-.906.191-.253.46-.448.806-.586.348-.137.755-.206 1.221-.206.69 0 1.231.146 1.627.437.397.291.63.688.696 1.19Z"/>
  <path stroke="#A78BFA" stroke-width="1.5" d="m177 66 33 10m33-1-33 1m33-1 33-10m-33 29 33-29m-33 60 33-60m-33 60 33-42m-33 42 33-24m-33 24 33 7m-33-38 33-11m-33 11 33 7m-33-7 33 38m-33-57 33 8m-33-8 33 26m-33-26 33 57m-33-38-33-18m33 49-33-49m33-1-33 19m33-1-33 1m33 31-33-31m33-19-33 50m33-31-33 31m33-1-33 1m-33-42 33-7m-33 25 33-25m-33 56 33-56m-33 56 33-38m-33 38 33-7m-33-24 33-7m-33 7 33 24m-33-42 33 11m-33-11 33 42m-33-59 33 28m-33-28 33 59" opacity=".5"/>
  <circle cx="210" cy="76" r="5" fill="#fff" stroke="#4D1D95" stroke-width="2"/>
  <circle cx="243" cy="76" r="5" fill="#fff" stroke="#4D1D95" stroke-width="2"/>
  <circle cx="210" cy="94" r="5" fill="#fff" stroke="#4D1D95" stroke-width="2"/>
  <circle cx="243" cy="94" r="5" fill="#fff" stroke="#4D1D95" stroke-width="2"/>
  <circle cx="210" cy="125" r="5" fill="#fff" stroke="#4D1D95" stroke-width="2"/>
  <circle cx="243" cy="125" r="5" fill="#fff" stroke="#4D1D95" stroke-width="2"/>
  <path fill="#9F9F9F" d="M210.001 105.057a.616.616 0 0 1-.451-.188.614.614 0 0 1-.188-.451c0-.176.062-.326.188-.451a.614.614 0 0 1 .451-.189c.175 0 .325.063.451.189a.615.615 0 0 1 .188.451.666.666 0 0 1-.32.554.614.614 0 0 1-.319.085Zm0 2a.616.616 0 0 1-.451-.188.614.614 0 0 1-.188-.451c0-.176.062-.326.188-.451a.614.614 0 0 1 .451-.189c.175 0 .325.063.451.189a.615.615 0 0 1 .188.451.666.666 0 0 1-.32.554.614.614 0 0 1-.319.085Zm0 2a.616.616 0 0 1-.451-.188.614.614 0 0 1-.188-.451c0-.176.062-.326.188-.451a.614.614 0 0 1 .451-.189c.175 0 .325.063.451.189a.615.615 0 0 1 .188.451.666.666 0 0 1-.32.554.614.614 0 0 1-.319.085Zm33-4a.616.616 0 0 1-.451-.188.614.614 0 0 1-.188-.451c0-.176.062-.326.188-.451a.614.614 0 0 1 .451-.189c.175 0 .325.063.451.189a.615.615 0 0 1 .188.451.666.666 0 0 1-.32.554.614.614 0 0 1-.319.085Zm0 2a.616.616 0 0 1-.451-.188.614.614 0 0 1-.188-.451c0-.176.062-.326.188-.451a.614.614 0 0 1 .451-.189c.175 0 .325.063.451.189a.615.615 0 0 1 .188.451.666.666 0 0 1-.32.554.614.614 0 0 1-.319.085Zm0 2a.616.616 0 0 1-.451-.188.614.614 0 0 1-.188-.451c0-.176.062-.326.188-.451a.614.614 0 0 1 .451-.189c.175 0 .325.063.451.189a.615.615 0 0 1 .188.451.666.666 0 0 1-.32.554.614.614 0 0 1-.319.085Z"/>
  <circle cx="177" cy="83" r="6" fill="#A78BFA"/>
  <circle cx="177" cy="65" r="6" fill="#A78BFA"/>
  <circle cx="177" cy="101" r="6" fill="#A78BFA"/>
  <circle cx="177" cy="132" r="6" fill="#A78BFA"/>
  <path fill="#A78BFA" d="M177.001 112.057a.616.616 0 0 1-.451-.188.614.614 0 0 1-.188-.451c0-.176.062-.326.188-.451a.614.614 0 0 1 .451-.189c.175 0 .325.063.451.189a.615.615 0 0 1 .188.451.666.666 0 0 1-.32.554.614.614 0 0 1-.319.085Zm0 2a.616.616 0 0 1-.451-.188.614.614 0 0 1-.188-.451c0-.176.062-.326.188-.451a.614.614 0 0 1 .451-.189c.175 0 .325.063.451.189a.615.615 0 0 1 .188.451.666.666 0 0 1-.32.554.614.614 0 0 1-.319.085Zm0 2a.616.616 0 0 1-.451-.188.614.614 0 0 1-.188-.451c0-.176.062-.326.188-.451a.614.614 0 0 1 .451-.189c.175 0 .325.063.451.189a.615.615 0 0 1 .188.451.666.666 0 0 1-.32.554.614.614 0 0 1-.319.085Z"/>
  <circle cx="276" cy="83" r="6" fill="#4D1D95"/>
  <circle cx="276" cy="65" r="6" fill="#4D1D95"/>
  <circle cx="276" cy="101" r="6" fill="#4D1D95"/>
  <circle cx="276" cy="132" r="6" fill="#4D1D95"/>
  <path fill="#4D1D95" d="M276.001 112.057a.616.616 0 0 1-.451-.188.614.614 0 0 1-.188-.451c0-.176.062-.326.188-.451a.614.614 0 0 1 .451-.189c.175 0 .325.063.451.189a.615.615 0 0 1 .188.451.666.666 0 0 1-.32.554.614.614 0 0 1-.319.085Zm0 2a.616.616 0 0 1-.451-.188.614.614 0 0 1-.188-.451c0-.176.062-.326.188-.451a.614.614 0 0 1 .451-.189c.175 0 .325.063.451.189a.615.615 0 0 1 .188.451.666.666 0 0 1-.32.554.614.614 0 0 1-.319.085Zm0 2a.616.616 0 0 1-.451-.188.614.614 0 0 1-.188-.451c0-.176.062-.326.188-.451a.614.614 0 0 1 .451-.189c.175 0 .325.063.451.189a.615.615 0 0 1 .188.451.666.666 0 0 1-.32.554.614.614 0 0 1-.319.085Z"/>
  <path fill="#9F9F9F" d="M167.53 64.47a.75.75 0 0 1 0 1.06l-4.773 4.773a.75.75 0 1 1-1.06-1.06L165.939 65l-4.242-4.243a.75.75 0 0 1 1.06-1.06l4.773 4.773ZM87 29.25c.529 0 1.051.006 1.568.016l-.031 1.5A72.746 72.746 0 0 0 87 30.75v-1.5Zm2.595.045a68.3 68.3 0 0 1 3.083.178l-.12 1.495a66.85 66.85 0 0 0-3.016-.174l.053-1.499Zm4.102.269c1.049.101 2.072.226 3.071.373l-.219 1.484a60.487 60.487 0 0 0-2.997-.364l.145-1.493Zm4.075.53a57.27 57.27 0 0 1 3.043.585l-.324 1.465a55.786 55.786 0 0 0-2.963-.57l.244-1.48Zm4.05.818a54.15 54.15 0 0 1 2.987.808l-.433 1.436a52.773 52.773 0 0 0-2.905-.786l.351-1.458Zm3.978 1.118a52.95 52.95 0 0 1 2.917 1.036l-.543 1.398a51.554 51.554 0 0 0-2.835-1.007l.461-1.427Zm3.871 1.417a54.75 54.75 0 0 1 2.827 1.257l-.648 1.353a53.18 53.18 0 0 0-2.749-1.222l.57-1.388Zm3.757 1.713c.932.468 1.84.957 2.726 1.462l-.743 1.303a56.7 56.7 0 0 0-2.656-1.424l.673-1.34Zm3.616 1.979c.893.53 1.765 1.076 2.617 1.636l-.824 1.253a64.984 64.984 0 0 0-2.558-1.599l.765-1.29Zm3.474 2.207a82.954 82.954 0 0 1 2.517 1.778l-.887 1.21a80.555 80.555 0 0 0-2.472-1.746l.842-1.242Zm3.34 2.389c.825.618 1.634 1.246 2.432 1.879l-.933 1.175a110.815 110.815 0 0 0-2.399-1.854l.9-1.2Zm3.233 2.519c.8.644 1.59 1.292 2.371 1.941l-.957 1.155c-.779-.646-1.562-1.29-2.355-1.928l.941-1.168Zm3.154 2.593c.786.656 1.566 1.312 2.343 1.963l-.964 1.15c-.779-.653-1.556-1.307-2.34-1.962l.961-1.151Zm3.123 2.616c.783.654 1.563 1.302 2.346 1.94l-.949 1.163a268.436 268.436 0 0 1-2.359-1.952l.962-1.15Zm3.133 2.579c.79.637 1.584 1.263 2.385 1.875l-.91 1.192a119.936 119.936 0 0 1-2.417-1.899l.942-1.168Zm3.191 2.483c.81.605 1.627 1.193 2.457 1.76l-.847 1.238a76.01 76.01 0 0 1-2.507-1.796l.897-1.202Zm3.292 2.322a54.98 54.98 0 0 0 2.555 1.596l-.759 1.294a57.027 57.027 0 0 1-2.624-1.639l.828-1.25Zm3.426 2.094a45.28 45.28 0 0 0 2.666 1.379l-.644 1.355a46.696 46.696 0 0 1-2.754-1.424l.732-1.31Zm3.574 1.797a40.28 40.28 0 0 0 2.781 1.122l-.509 1.411a41.955 41.955 0 0 1-2.884-1.163l.612-1.37Zm3.723 1.448a39 39 0 0 0 2.873.835l-.363 1.455a40.479 40.479 0 0 1-2.983-.866l.473-1.424Zm3.847 1.065c.955.212 1.938.394 2.949.542l-.216 1.484a41.894 41.894 0 0 1-3.059-.562l.326-1.464Zm3.94.674c.969.118 1.964.205 2.989.26l-.079 1.497a45.396 45.396 0 0 1-3.091-.268l.181-1.489Zm3.982.301a48.35 48.35 0 0 0 1.524.024v1.5a49.82 49.82 0 0 1-1.571-.025l.047-1.499Z" opacity=".5"/>
  <path stroke="#9F9F9F" stroke-dasharray=".1 2 .1 2" stroke-linecap="round" stroke-linejoin="round" stroke-width="1.5" d="M288 93c36.143 0 39.429-44 69-44m-69 44c36.143 0 39.429 47 69 47" opacity=".5"/>
  <path stroke="#9F9F9F" stroke-dasharray=".1 2 .1 2" stroke-linecap="round" stroke-linejoin="round" stroke-width="1.5" d="M288 93c36.143 0 39.429 1 69 1" opacity=".5"/>
  <path fill="#9F9F9F" d="M167.53 65.53a.75.75 0 0 0 0-1.06l-4.773-4.773a.75.75 0 1 0-1.06 1.06L165.939 65l-4.242 4.243a.75.75 0 0 0 1.06 1.06l4.773-4.773ZM89 166.75c.523 0 1.04-.016 1.551-.048l-.093-1.497c-.48.03-.966.045-1.458.045v1.5Zm2.567-.132a23.992 23.992 0 0 0 3.013-.509l-.344-1.46c-.92.217-1.86.377-2.824.477l.155 1.492Zm4-.764a24.407 24.407 0 0 0 2.883-1.012l-.584-1.382a22.88 22.88 0 0 1-2.705.95l.406 1.444Zm3.815-1.428c.914-.43 1.806-.915 2.677-1.451l-.787-1.278c-.825.509-1.668.967-2.529 1.372l.639 1.357Zm3.538-2.003a31.95 31.95 0 0 0 2.438-1.798l-.945-1.165a30.418 30.418 0 0 1-2.324 1.714l.831 1.249Zm3.224-2.454a39.445 39.445 0 0 0 2.204-2.053l-1.063-1.059a37.805 37.805 0 0 1-2.119 1.975l.978 1.137Zm2.917-2.785a49.32 49.32 0 0 0 1.996-2.237l-1.149-.965a47.677 47.677 0 0 1-1.934 2.168l1.087 1.034Zm2.643-3.024a59.662 59.662 0 0 0 1.819-2.371l-1.211-.884a59.046 59.046 0 0 1-1.774 2.312l1.166.943Zm2.41-3.193a74.558 74.558 0 0 0 1.673-2.472l-1.258-.817a72.609 72.609 0 0 1-1.64 2.423l1.225.866Zm2.216-3.319a93.238 93.238 0 0 0 1.553-2.55l-1.293-.76a92.128 92.128 0 0 1-1.528 2.508l1.268.802Zm2.055-3.414c.492-.856.977-1.727 1.455-2.612l-1.319-.713c-.473.874-.951 1.734-1.436 2.577l1.3.748Zm1.924-3.487c.464-.875.922-1.762 1.374-2.66l-1.34-.675c-.448.89-.901 1.767-1.359 2.632l1.325.703Zm1.815-3.545c.44-.887.875-1.786 1.305-2.693l-1.355-.642c-.427.9-.858 1.79-1.294 2.669l1.344.666Zm1.727-3.587c.418-.894.832-1.796 1.242-2.705l-1.367-.617c-.408.903-.819 1.799-1.234 2.686l1.359.636Zm1.651-3.616c.402-.901.801-1.807 1.196-2.719l-1.376-.597c-.394.907-.79 1.809-1.189 2.704l1.369.612Zm1.59-3.631c.391-.909.778-1.822 1.164-2.739l-1.383-.581c-.384.913-.77 1.823-1.159 2.727l1.378.593Zm1.546-3.653c.382-.914.761-1.831 1.139-2.75l-1.388-.57c-.376.916-.754 1.831-1.135 2.742l1.384.578Zm1.514-3.666c.375-.917.749-1.834 1.12-2.752l-1.39-.563c-.371.916-.744 1.832-1.118 2.747l1.388.568Zm1.492-3.671 1.111-2.755-1.391-.561-1.111 2.754 1.391.562Zm1.48-3.672 1.112-2.756-1.391-.562c-.371.917-.741 1.836-1.112 2.758l1.391.56Zm1.482-3.673c.373-.92.745-1.837 1.117-2.748l-1.388-.567c-.374.913-.746 1.831-1.119 2.752l1.39.563Zm1.493-3.665c.376-.916.752-1.827 1.129-2.731l-1.384-.577c-.378.906-.756 1.82-1.133 2.738l1.388.57Zm1.514-3.649c.385-.916.771-1.825 1.158-2.724l-1.377-.593c-.39.904-.777 1.816-1.164 2.736l1.383.581Zm1.548-3.625a240.1 240.1 0 0 1 1.201-2.718l-1.368-.615c-.405.901-.808 1.814-1.209 2.735l1.376.598Zm1.604-3.61c.414-.91.83-1.808 1.25-2.692l-1.355-.643c-.424.891-.843 1.797-1.261 2.714l1.366.62Zm1.673-3.577c.434-.9.871-1.784 1.312-2.65l-1.338-.68c-.445.876-.887 1.77-1.325 2.678l1.351.652Zm1.761-3.526c.459-.886.923-1.752 1.391-2.597l-1.312-.727a109.97 109.97 0 0 0-1.41 2.633l1.331.69Zm1.874-3.457c.492-.867.99-1.71 1.494-2.526l-1.277-.787a81.926 81.926 0 0 0-1.521 2.572l1.304.74Zm2.018-3.363a61.484 61.484 0 0 1 1.626-2.43l-1.225-.865c-.564.8-1.12 1.63-1.667 2.49l1.266.805Zm2.202-3.228a45.121 45.121 0 0 1 1.797-2.294l-1.149-.964a46.202 46.202 0 0 0-1.857 2.37l1.209.888Zm2.434-3.033a32.629 32.629 0 0 1 2.01-2.089l-1.031-1.089a34.04 34.04 0 0 0-2.103 2.184l1.124.994Zm2.719-2.737a23.655 23.655 0 0 1 2.262-1.775l-.85-1.236a25.132 25.132 0 0 0-2.405 1.886l.993 1.124Zm3.051-2.291c.824-.512 1.666-.95 2.527-1.312l-.58-1.383c-.939.394-1.852.87-2.739 1.42l.792 1.275Zm3.407-1.651a15.25 15.25 0 0 1 2.736-.69l-.23-1.482c-1.029.16-2.03.414-3.004.757l.498 1.415Zm3.667-.805c.469-.044.946-.066 1.429-.066v-1.5c-.529 0-1.052.024-1.567.072l.138 1.494Z" opacity=".5"/>
  <path fill="#9F9F9F" d="M167.53 131.47a.749.749 0 0 1 0 1.06l-4.773 4.773a.749.749 0 1 1-1.06-1.06l4.242-4.243-4.242-4.243a.749.749 0 1 1 1.06-1.06l4.773 4.773ZM87 29.25c.53 0 1.055.016 1.574.047l-.09 1.497A25.044 25.044 0 0 0 87 30.75v-1.5Zm2.606.13c1.042.107 2.062.276 3.059.505l-.337 1.462a23.332 23.332 0 0 0-2.874-.474l.152-1.492Zm4.062.758c1.001.275 1.978.61 2.933 1.004l-.571 1.387c-.9-.37-1.819-.687-2.76-.945l.398-1.446Zm3.882 1.417c.933.428 1.844.911 2.733 1.446l-.773 1.285a26.331 26.331 0 0 0-2.585-1.368l.626-1.363Zm3.612 1.996a32.593 32.593 0 0 1 2.497 1.798l-.932 1.175a31.107 31.107 0 0 0-2.382-1.715l.817-1.258Zm3.301 2.454a39.721 39.721 0 0 1 2.263 2.06l-1.051 1.071a38.342 38.342 0 0 0-2.177-1.983l.965-1.148Zm2.994 2.796c.698.718 1.382 1.47 2.052 2.252l-1.139.976a47.257 47.257 0 0 0-1.989-2.183l1.076-1.045Zm2.717 3.042c.636.77 1.26 1.569 1.873 2.392l-1.203.895a59.454 59.454 0 0 0-1.827-2.332l1.157-.955Zm2.48 3.22c.584.81 1.159 1.644 1.724 2.498l-1.251.827a74.116 74.116 0 0 0-1.69-2.447l1.217-.878Zm2.281 3.352a91.442 91.442 0 0 1 1.601 2.58l-1.287.77a88.521 88.521 0 0 0-1.575-2.537l1.261-.813Zm2.118 3.452c.507.866 1.006 1.747 1.499 2.643l-1.314.723c-.487-.885-.98-1.755-1.48-2.608l1.295-.758Zm1.982 3.528c.477.885.949 1.783 1.415 2.693l-1.335.684c-.462-.901-.928-1.79-1.4-2.664l1.32-.713Zm1.869 3.588c.453.898.901 1.807 1.344 2.725l-1.351.652c-.44-.911-.883-1.812-1.332-2.702l1.339-.675Zm1.778 3.632c.431.905.857 1.819 1.28 2.74l-1.363.625a221.93 221.93 0 0 0-1.271-2.72l1.354-.645Zm1.701 3.663c.414.912.824 1.83 1.231 2.754l-1.372.605c-.405-.919-.813-1.833-1.225-2.74l1.366-.62Zm1.637 3.679c.402.92.802 1.847 1.198 2.776l-1.379.589c-.395-.926-.793-1.848-1.194-2.765l1.375-.6Zm1.592 3.702c.393.926.784 1.856 1.173 2.787l-1.385.577a538.14 538.14 0 0 0-1.168-2.778l1.38-.586Zm1.559 3.715c.386.93.771 1.86 1.153 2.79l-1.387.57c-.382-.928-.766-1.857-1.151-2.784l1.385-.576Zm1.536 3.721 1.144 2.793-1.388.568-1.144-2.791 1.388-.57Zm1.524 3.722 1.144 2.795-1.388.569c-.381-.93-.763-1.862-1.144-2.796l1.388-.568Zm1.525 3.724c.384.932.767 1.861 1.15 2.785l-1.385.575a994.99 994.99 0 0 1-1.152-2.79l1.387-.57Zm1.537 3.715c.387.928.775 1.851 1.163 2.767l-1.381.586c-.39-.92-.778-1.845-1.167-2.776l1.385-.577Zm1.559 3.698c.396.928.793 1.849 1.192 2.76l-1.374.601c-.401-.916-.8-1.84-1.198-2.772l1.38-.589Zm1.594 3.673c.41.929.822 1.847 1.236 2.754l-1.365.623c-.417-.913-.831-1.837-1.243-2.771l1.372-.606Zm1.65 3.657c.427.923.856 1.832 1.288 2.728l-1.351.651a176.73 176.73 0 0 1-1.298-2.749l1.361-.63Zm1.723 3.623c.447.912.897 1.807 1.351 2.685l-1.333.689c-.459-.888-.914-1.793-1.365-2.713l1.347-.661Zm1.813 3.57c.473.897.951 1.774 1.433 2.629l-1.306.737c-.49-.869-.974-1.758-1.453-2.666l1.326-.7Zm1.93 3.498a81.034 81.034 0 0 0 1.538 2.555l-1.27.798a83.27 83.27 0 0 1-1.567-2.602l1.299-.751Zm2.077 3.4a62.203 62.203 0 0 0 1.675 2.455l-1.217.876a62.413 62.413 0 0 1-1.716-2.515l1.258-.816Zm2.266 3.26c.607.81 1.223 1.582 1.849 2.313l-1.139.976a47.141 47.141 0 0 1-1.91-2.39l1.2-.899Zm2.503 3.056c.677.75 1.365 1.452 2.065 2.101l-1.019 1.1a34.564 34.564 0 0 1-2.16-2.196l1.114-1.005Zm2.792 2.751c.758.656 1.531 1.25 2.319 1.779l-.836 1.246a25.503 25.503 0 0 1-2.464-1.89l.981-1.135Zm3.126 2.295c.843.511 1.704.949 2.584 1.309l-.568 1.389a19.864 19.864 0 0 1-2.794-1.416l.778-1.282Zm3.483 1.647c.906.312 1.835.542 2.788.686l-.225 1.483a17.333 17.333 0 0 1-3.05-.75l.487-1.419Zm3.736.801c.478.043.963.065 1.455.065v1.5c-.537 0-1.067-.024-1.59-.071l.135-1.494Z" opacity=".5"/>
  <path fill="#9F9F9F" d="M167.53 132.53a.749.749 0 0 0 0-1.06l-4.773-4.773a.749.749 0 1 0-1.06 1.06l4.242 4.243-4.242 4.243a.749.749 0 1 0 1.06 1.06l4.773-4.773ZM89 166.75c.515 0 1.025-.005 1.528-.016l-.031-1.5a67.17 67.17 0 0 1-1.497.016v1.5Zm2.529-.044a66.246 66.246 0 0 0 3.004-.173l-.12-1.495a64.68 64.68 0 0 1-2.937.169l.053 1.499Zm3.997-.26c1.023-.099 2.02-.22 2.994-.363l-.218-1.484c-.949.139-1.922.257-2.92.353l.144 1.494Zm3.973-.515a55.407 55.407 0 0 0 2.965-.568l-.322-1.465a54.7 54.7 0 0 1-2.886.553l.243 1.48Zm3.947-.793a53.705 53.705 0 0 0 2.912-.785l-.431-1.437c-.919.276-1.862.531-2.83.763l.349 1.459Zm3.879-1.086a52.169 52.169 0 0 0 2.844-1.006l-.541-1.399c-.897.347-1.817.673-2.762.977l.459 1.428Zm3.774-1.376a53.721 53.721 0 0 0 2.757-1.22l-.646-1.354c-.87.415-1.762.811-2.679 1.186l.568 1.388Zm3.664-1.663c.91-.455 1.795-.929 2.66-1.42l-.741-1.304c-.842.478-1.705.94-2.59 1.382l.671 1.342Zm3.528-1.923a63.957 63.957 0 0 0 2.553-1.589l-.821-1.255a62.754 62.754 0 0 1-2.495 1.552l.763 1.292Zm3.389-2.145a77.228 77.228 0 0 0 2.457-1.728l-.885-1.211a78.521 78.521 0 0 1-2.411 1.696l.839 1.243Zm3.26-2.321a114.28 114.28 0 0 0 2.373-1.827l-.93-1.177c-.77.608-1.549 1.21-2.341 1.802l.898 1.202Zm3.154-2.449c.781-.626 1.552-1.257 2.315-1.888l-.956-1.156c-.759.628-1.524 1.253-2.297 1.874l.938 1.17Zm3.079-2.521c.766-.638 1.528-1.276 2.285-1.909l-.961-1.151c-.76.635-1.519 1.27-2.284 1.906l.96 1.154Zm3.047-2.544c.763-.635 1.525-1.265 2.289-1.886l-.947-1.164c-.77.626-1.536 1.26-2.302 1.898l.96 1.152Zm3.056-2.507c.772-.619 1.546-1.228 2.328-1.822l-.908-1.194c-.794.604-1.579 1.221-2.359 1.847l.939 1.169Zm3.113-2.413a73.12 73.12 0 0 1 2.397-1.71l-.845-1.24a74.212 74.212 0 0 0-2.446 1.746l.894 1.204Zm3.211-2.256a53.916 53.916 0 0 1 2.491-1.549l-.756-1.296a55.988 55.988 0 0 0-2.561 1.592l.826 1.253Zm3.34-2.033a44.79 44.79 0 0 1 2.599-1.339l-.642-1.355c-.917.434-1.812.896-2.686 1.383l.729 1.311Zm3.484-1.745a40.07 40.07 0 0 1 2.71-1.088l-.507-1.412c-.963.346-1.9.724-2.813 1.13l.61 1.37Zm3.628-1.405c.907-.3 1.839-.571 2.799-.809l-.362-1.456c-.997.248-1.965.529-2.909.841l.472 1.424Zm3.748-1.032c.93-.206 1.887-.382 2.873-.526l-.216-1.484a40.95 40.95 0 0 0-2.982.546l.325 1.464Zm3.837-.654a42.856 42.856 0 0 1 2.911-.251l-.078-1.498a44.517 44.517 0 0 0-3.013.26l.18 1.489Zm3.879-.292a48.26 48.26 0 0 1 1.484-.023v-1.5a48.3 48.3 0 0 0-1.532.024l.048 1.499Zm2.014-50.303a.75.75 0 0 1 0 1.06l-4.773 4.773a.75.75 0 1 1-1.06-1.06L165.939 83l-4.242-4.243a.75.75 0 0 1 1.06-1.06l4.773 4.773ZM87 29.25c.543 0 1.08.009 1.612.026l-.05 1.5A47.884 47.884 0 0 0 87 30.75v-1.5Zm2.666.072a46 46 0 0 1 3.163.283l-.187 1.488a44.043 44.043 0 0 0-3.058-.273l.082-1.498Zm4.204.426c1.069.16 2.11.357 3.127.588l-.333 1.463a40.743 40.743 0 0 0-3.016-.567l.222-1.484Zm4.145.833c1.045.266 2.062.569 3.055.906l-.483 1.42a39.194 39.194 0 0 0-2.942-.872l.37-1.454Zm4.058 1.262c1.005.37 1.984.777 2.938 1.216l-.627 1.363a39.568 39.568 0 0 0-2.83-1.172l.519-1.407Zm3.897 1.672c.958.47 1.889.974 2.798 1.506l-.759 1.294c-.878-.514-1.777-1-2.7-1.453l.661-1.347Zm3.704 2.051a47.894 47.894 0 0 1 2.641 1.759l-.872 1.22a46.455 46.455 0 0 0-2.558-1.703l.789-1.276Zm3.494 2.382a55.24 55.24 0 0 1 2.481 1.967l-.964 1.149a53.871 53.871 0 0 0-2.414-1.914l.897-1.202Zm3.283 2.652a65.726 65.726 0 0 1 2.331 2.132l-1.038 1.083a63.836 63.836 0 0 0-2.278-2.083l.985-1.132Zm3.086 2.866a82.81 82.81 0 0 1 2.201 2.257l-1.094 1.027a81.179 81.179 0 0 0-2.16-2.216l1.053-1.068Zm2.915 3.027c.71.772 1.407 1.555 2.094 2.348l-1.133.982a110.072 110.072 0 0 0-2.065-2.316l1.104-1.014Zm2.777 3.142c.679.796 1.35 1.6 2.012 2.409l-1.159.95a161.912 161.912 0 0 0-1.994-2.386l1.141-.973Zm2.673 3.219c.659.812 1.312 1.628 1.96 2.444l-1.175.932a295.407 295.407 0 0 0-1.95-2.431l1.165-.945Zm2.607 3.26c.648.82 1.292 1.64 1.934 2.456l-1.179.928a982.083 982.083 0 0 0-1.932-2.453l1.177-.93Zm2.58 3.275c.647.82 1.292 1.636 1.939 2.443l-1.171.938a419.68 419.68 0 0 1-1.946-2.452l1.178-.929Zm2.589 3.252c.656.813 1.314 1.615 1.975 2.405l-1.151.963c-.667-.798-1.33-1.608-1.991-2.425l1.167-.943Zm2.64 3.194c.676.795 1.355 1.576 2.041 2.338l-1.114 1.003a109.222 109.222 0 0 1-2.07-2.37l1.143-.97Zm2.74 3.104c.705.765 1.418 1.51 2.141 2.232l-1.059 1.061a74.763 74.763 0 0 1-2.185-2.276l1.103-1.017Zm2.874 2.95a53.68 53.68 0 0 0 2.273 2.079l-.979 1.136a55.64 55.64 0 0 1-2.336-2.135l1.042-1.08Zm3.058 2.74c.796.657 1.607 1.28 2.435 1.868l-.867 1.224c-.86-.61-1.7-1.256-2.522-1.934l.954-1.157Zm3.276 2.446c.85.569 1.72 1.098 2.611 1.584l-.718 1.317a35.677 35.677 0 0 1-2.727-1.654l.834-1.247Zm3.511 2.057c.904.456 1.831.868 2.783 1.232l-.536 1.401a31.27 31.27 0 0 1-2.923-1.294l.676-1.34Zm3.737 1.577a28.05 28.05 0 0 0 2.926.828L160.11 83a29.665 29.665 0 0 1-3.081-.871l.485-1.42Zm3.921 1.034c.976.183 1.98.32 3.014.404l-.122 1.495a30.687 30.687 0 0 1-3.17-.425l.278-1.474Zm4.02.47c.508.024 1.023.037 1.545.037v1.5a33.26 33.26 0 0 1-1.618-.04l.073-1.497Z" opacity=".5"/>
  <path fill="#9F9F9F" d="M167.53 83.53a.75.75 0 0 0 0-1.06l-4.773-4.773a.75.75 0 1 0-1.06 1.06L165.939 83l-4.242 4.243a.75.75 0 0 0 1.06 1.06l4.773-4.773ZM89 166.75c.526 0 1.047-.013 1.562-.04l-.078-1.498a29.06 29.06 0 0 1-1.484.038v1.5Zm2.584-.111a28.342 28.342 0 0 0 3.047-.429l-.29-1.472c-.94.185-1.901.322-2.886.407l.129 1.494Zm4.048-.645a27.956 27.956 0 0 0 2.955-.869l-.502-1.414c-.91.323-1.842.598-2.797.823l.344 1.46Zm3.914-1.229a29.267 29.267 0 0 0 2.797-1.281l-.694-1.33c-.865.452-1.75.858-2.655 1.216l.552 1.395Zm3.699-1.771a33.013 33.013 0 0 0 2.598-1.634l-.855-1.232a31.437 31.437 0 0 1-2.481 1.56l.738 1.306Zm3.427-2.227a38.442 38.442 0 0 0 2.391-1.918l-.983-1.133a36.955 36.955 0 0 1-2.299 1.844l.891 1.207Zm3.146-2.588a47.125 47.125 0 0 0 2.189-2.131l-1.08-1.041a44.584 44.584 0 0 1-2.119 2.062l1.01 1.11Zm2.882-2.864a58.179 58.179 0 0 0 2.009-2.29l-1.153-.96a55.452 55.452 0 0 1-1.956 2.23l1.1 1.02Zm2.646-3.069a70.22 70.22 0 0 0 1.854-2.408l-1.208-.89a68.791 68.791 0 0 1-1.814 2.357l1.168.941Zm2.445-3.222a86.33 86.33 0 0 0 1.723-2.496l-1.249-.831a84.59 84.59 0 0 1-1.693 2.453l1.219.874Zm2.275-3.334a106.17 106.17 0 0 0 1.615-2.561l-1.279-.783a111.02 111.02 0 0 1-1.593 2.526l1.257.818Zm2.135-3.419c.516-.859 1.025-1.729 1.528-2.609l-1.303-.744c-.498.871-1.001 1.732-1.511 2.581l1.286.772Zm2.022-3.48c.491-.874.977-1.756 1.457-2.645l-1.32-.713c-.476.882-.958 1.757-1.445 2.622l1.308.736Zm1.931-3.527c.472-.884.939-1.774 1.403-2.669l-1.332-.69c-.461.89-.926 1.775-1.394 2.652l1.323.707Zm1.861-3.559a336.9 336.9 0 0 0 1.362-2.683l-1.34-.673a333.39 333.39 0 0 1-1.356 2.671l1.334.685Zm1.811-3.579c.448-.896.893-1.794 1.336-2.692l-1.345-.664c-.443.896-.886 1.792-1.333 2.685l1.342.671Zm1.778-3.591c.443-.9.884-1.8 1.324-2.697l-1.347-.66-1.323 2.695 1.346.662Zm1.763-3.593c.442-.902.883-1.802 1.324-2.697l-1.345-.663c-.442.897-.884 1.797-1.326 2.7l1.347.66Zm1.765-3.59c.446-.902.892-1.798 1.339-2.688l-1.341-.673c-.448.893-.895 1.792-1.342 2.696l1.344.665Zm1.786-3.576c.455-.899.91-1.789 1.367-2.671l-1.332-.69c-.46.886-.917 1.782-1.373 2.684l1.338.677Zm1.826-3.551c.468-.893.937-1.775 1.41-2.644l-1.318-.717c-.477.877-.95 1.766-1.421 2.665l1.329.696Zm1.886-3.513c.487-.884.978-1.753 1.472-2.605l-1.298-.753c-.5.863-.996 1.742-1.487 2.633l1.313.725Zm1.971-3.458c.514-.869 1.032-1.72 1.556-2.55l-1.269-.8a101.92 101.92 0 0 0-1.578 2.587l1.291.763Zm2.085-3.38a77.384 77.384 0 0 1 1.665-2.472l-1.227-.862a76.475 76.475 0 0 0-1.697 2.52l1.259.814Zm2.233-3.267a56.643 56.643 0 0 1 1.803-2.361l-1.167-.942a58.95 58.95 0 0 0-1.851 2.422l1.215.88Zm2.424-3.115a43.066 43.066 0 0 1 1.971-2.193l-1.078-1.042a44.065 44.065 0 0 0-2.041 2.27l1.148.965Zm2.669-2.896c.713-.7 1.439-1.353 2.179-1.956l-.947-1.163c-.78.635-1.54 1.32-2.282 2.048l1.05 1.07Zm2.949-2.562a24.245 24.245 0 0 1 2.415-1.618l-.757-1.295a25.77 25.77 0 0 0-2.564 1.718l.906 1.195Zm3.257-2.085c.861-.452 1.742-.84 2.645-1.157l-.497-1.416c-.976.344-1.924.76-2.846 1.246l.698 1.327Zm3.558-1.452c.913-.27 1.85-.469 2.814-.593l-.192-1.488a19.68 19.68 0 0 0-3.046.642l.424 1.439Zm3.765-.691c.479-.037.965-.056 1.459-.056v-1.5c-.532 0-1.056.02-1.575.06l.116 1.496Z" opacity=".5"/>
  <path fill="#9F9F9F" d="M167.53 100.47a.749.749 0 0 1 0 1.06l-4.773 4.773a.749.749 0 1 1-1.06-1.06l4.242-4.243-4.242-4.243a.75.75 0 0 1 1.06-1.06l4.773 4.773ZM87 29.25c.526 0 1.046.011 1.56.033l-.062 1.498c-.494-.02-.993-.031-1.498-.031v-1.5Zm2.583.09a34.57 34.57 0 0 1 3.053.352l-.238 1.48a33.112 33.112 0 0 0-2.92-.336l.105-1.496Zm4.06.53a32.35 32.35 0 0 1 2.994.72l-.419 1.44c-.93-.27-1.882-.5-2.858-.688l.284-1.473Zm3.97 1.02c.984.32 1.945.682 2.882 1.085l-.593 1.378a31.818 31.818 0 0 0-2.752-1.036l.463-1.427Zm3.815 1.504c.932.434 1.841.909 2.729 1.42l-.75 1.3a33.802 33.802 0 0 0-2.613-1.36l.634-1.36Zm3.608 1.944c.871.535 1.72 1.105 2.55 1.709l-.882 1.213c-.8-.581-1.617-1.13-2.453-1.644l.785-1.278Zm3.367 2.317a45.655 45.655 0 0 1 2.367 1.942l-.989 1.128a44.082 44.082 0 0 0-2.289-1.878l.911-1.192Zm3.125 2.62a53.675 53.675 0 0 1 2.193 2.124l-1.072 1.048a53.092 53.092 0 0 0-2.133-2.065l1.012-1.107Zm2.897 2.857a65.195 65.195 0 0 1 2.038 2.263l-1.137.978a63.703 63.703 0 0 0-1.991-2.211l1.09-1.03Zm2.695 3.038a78.43 78.43 0 0 1 1.903 2.368l-1.186.918a79.273 79.273 0 0 0-1.868-2.324l1.151-.962Zm2.52 3.174a102.96 102.96 0 0 1 1.791 2.446l-1.223.869a99.096 99.096 0 0 0-1.765-2.41l1.197-.905Zm2.374 3.275c.574.825 1.141 1.66 1.7 2.505l-1.25.828a131.683 131.683 0 0 0-1.681-2.475l1.231-.858Zm2.256 3.35c.549.841 1.092 1.69 1.63 2.545l-1.27.799a181.35 181.35 0 0 0-1.616-2.524l1.256-.82Zm2.165 3.402c.53.853 1.056 1.712 1.578 2.574l-1.284.776c-.519-.857-1.041-1.71-1.568-2.558l1.274-.792Zm2.098 3.436a475.09 475.09 0 0 1 1.544 2.59l-1.291.765c-.51-.863-1.023-1.724-1.539-2.582l1.286-.773Zm2.055 3.456c.511.867 1.021 1.733 1.528 2.597l-1.293.76c-.508-.864-1.016-1.73-1.527-2.595l1.292-.762Zm2.036 3.462c.511.868 1.02 1.733 1.529 2.592l-1.291.765c-.51-.862-1.02-1.728-1.531-2.597l1.293-.76Zm2.041 3.455c.515.865 1.03 1.723 1.546 2.574l-1.282.778a327.329 327.329 0 0 1-1.553-2.585l1.289-.767Zm2.069 3.431c.525.858 1.052 1.706 1.582 2.543l-1.267.802a187.394 187.394 0 0 1-1.594-2.561l1.279-.784Zm2.123 3.392c.544.847 1.091 1.68 1.642 2.499l-1.243.838a132.416 132.416 0 0 1-1.661-2.527l1.262-.81Zm2.207 3.329a95.3 95.3 0 0 0 1.727 2.436l-1.21.887a98.823 98.823 0 0 1-1.754-2.474l1.237-.85Zm2.322 3.237a70.217 70.217 0 0 0 1.838 2.345l-1.16.951a71.921 71.921 0 0 1-1.877-2.394l1.199-.902Zm2.472 3.106c.65.768 1.309 1.507 1.98 2.214l-1.089 1.032a55.322 55.322 0 0 1-2.036-2.277l1.145-.97Zm2.66 2.918a40.897 40.897 0 0 0 2.152 2.03l-.988 1.13a42.507 42.507 0 0 1-2.231-2.105l1.067-1.055Zm2.902 2.668a31.438 31.438 0 0 0 2.347 1.77l-.845 1.24a32.925 32.925 0 0 1-2.458-1.854l.956-1.156Zm3.166 2.308c.832.526 1.682 1 2.552 1.422l-.652 1.35a27.227 27.227 0 0 1-2.701-1.504l.801-1.268Zm3.436 1.827c.89.386 1.803.716 2.739.986l-.415 1.441a23.945 23.945 0 0 1-2.921-1.051l.597-1.376Zm3.674 1.233c.929.224 1.884.39 2.865.494l-.157 1.492a23.634 23.634 0 0 1-3.06-.528l.352-1.458Zm3.827.575c.486.03.978.046 1.477.046v1.5c-.53 0-1.054-.016-1.571-.049l.094-1.497Z" opacity=".5"/>
  <path fill="#9F9F9F" d="M167.53 101.53a.749.749 0 0 0 0-1.06l-4.773-4.773a.75.75 0 1 0-1.06 1.06l4.242 4.243-4.242 4.243a.749.749 0 1 0 1.06 1.06l4.773-4.773ZM89 166.75c.537 0 1.067-.011 1.591-.033l-.062-1.498c-.503.02-1.013.031-1.529.031v1.5Zm2.632-.09a35.689 35.689 0 0 0 3.117-.354l-.234-1.481c-.972.154-1.966.267-2.987.338l.104 1.497Zm4.142-.532a33.845 33.845 0 0 0 3.057-.727l-.415-1.442a32.33 32.33 0 0 1-2.922.695l.28 1.474Zm4.05-1.03a33.554 33.554 0 0 0 2.946-1.1l-.589-1.379c-.915.39-1.853.742-2.816 1.051l.46 1.428Zm3.904-1.526c.952-.441 1.88-.923 2.785-1.442l-.747-1.301c-.868.498-1.757.96-2.669 1.382l.631 1.361Zm3.684-1.975a39.912 39.912 0 0 0 2.603-1.737l-.88-1.215a38.288 38.288 0 0 1-2.506 1.672l.783 1.28Zm3.44-2.36a46.184 46.184 0 0 0 2.416-1.977l-.988-1.129a45.283 45.283 0 0 1-2.337 1.914l.909 1.192Zm3.194-2.672a55.548 55.548 0 0 0 2.239-2.163l-1.072-1.05a53.851 53.851 0 0 1-2.178 2.105l1.011 1.108Zm2.959-2.911a67.741 67.741 0 0 0 2.084-2.308l-1.135-.98a66.01 66.01 0 0 1-2.038 2.257l1.089 1.031Zm2.752-3.093a85.805 85.805 0 0 0 1.95-2.412l-1.183-.922a83.507 83.507 0 0 1-1.916 2.37l1.149.964Zm2.579-3.229c.623-.817 1.236-1.648 1.841-2.489l-1.219-.875c-.596.83-1.201 1.65-1.815 2.455l1.193.909Zm2.439-3.329a144.6 144.6 0 0 0 1.754-2.543l-1.243-.839c-.572.848-1.151 1.688-1.737 2.517l1.226.865Zm2.328-3.398c.57-.854 1.134-1.715 1.692-2.579l-1.259-.814c-.556.859-1.116 1.713-1.681 2.561l1.248.832Zm2.249-3.443c.554-.865 1.104-1.732 1.651-2.599l-1.269-.8c-.545.865-1.093 1.729-1.645 2.589l1.263.81Zm2.197-3.467c.547-.87 1.091-1.74 1.632-2.606l-1.271-.796c-.542.867-1.085 1.735-1.631 2.604l1.27.798Zm2.177-3.476c.545-.87 1.089-1.737 1.634-2.597l-1.268-.802c-.546.863-1.091 1.731-1.637 2.603l1.271.796Zm2.184-3.463c.552-.868 1.105-1.727 1.66-2.576l-1.256-.821c-.559.856-1.115 1.72-1.669 2.591l1.265.806Zm2.221-3.431a159.95 159.95 0 0 1 1.71-2.537l-1.235-.851c-.58.841-1.155 1.696-1.726 2.561l1.251.827Zm2.29-3.372c.591-.843 1.186-1.67 1.787-2.477l-1.203-.896c-.611.82-1.214 1.659-1.812 2.512l1.228.861Zm2.394-3.283a75.442 75.442 0 0 1 1.893-2.385l-1.155-.957a78.772 78.772 0 0 0-1.931 2.433l1.193.909Zm2.547-3.162a56.376 56.376 0 0 1 2.03-2.252l-1.085-1.035a57.631 57.631 0 0 0-2.085 2.312l1.14.975Zm2.737-2.977a41.91 41.91 0 0 1 2.203-2.063l-.984-1.133a43.02 43.02 0 0 0-2.282 2.138l1.063 1.058Zm2.965-2.708a32.305 32.305 0 0 1 2.403-1.799l-.841-1.242a33.625 33.625 0 0 0-2.514 1.882l.952 1.159Zm3.241-2.346c.85-.533 1.72-1.015 2.612-1.443l-.648-1.353c-.946.454-1.866.964-2.762 1.526l.798 1.27Zm3.517-1.854c.909-.39 1.841-.724 2.8-.997l-.411-1.443a24.642 24.642 0 0 0-2.981 1.062l.592 1.378Zm3.759-1.248a22.715 22.715 0 0 1 2.929-.497l-.155-1.492a24.282 24.282 0 0 0-3.121.53l.347 1.459Zm3.911-.579c.495-.03.998-.046 1.508-.046v-1.5c-.541 0-1.074.017-1.601.049l.093 1.497Z" opacity=".5"/>
  <path fill="#4D1D95" d="M57.5 31.199a.91.91 0 0 1-.471-.126.98.98 0 0 1-.341-.34.91.91 0 0 1-.126-.472c0-.173.042-.33.126-.47a.962.962 0 0 1 .34-.34.898.898 0 0 1 .472-.127.944.944 0 0 1 .938.938.898.898 0 0 1-.129.47.962.962 0 0 1-.338.341.902.902 0 0 1-.471.126Zm8.89-1.38c0 .475-.091.88-.271 1.214a1.877 1.877 0 0 1-.733.765 2.072 2.072 0 0 1-1.04.262c-.388 0-.736-.088-1.044-.265a1.882 1.882 0 0 1-.731-.765c-.179-.333-.268-.737-.268-1.212 0-.476.089-.88.268-1.214.179-.334.423-.588.73-.763a2.067 2.067 0 0 1 1.045-.264c.385 0 .731.088 1.04.264.31.175.554.429.733.763.18.334.27.738.27 1.214Zm-.936 0c0-.31-.046-.569-.139-.78a1.055 1.055 0 0 0-.385-.482 1.037 1.037 0 0 0-.584-.164c-.223 0-.418.054-.584.164a1.08 1.08 0 0 0-.388.481c-.09.212-.136.472-.136.78 0 .308.045.568.136.78.093.212.222.372.388.482.166.109.36.164.584.164.223 0 .417-.055.584-.165.166-.109.294-.27.385-.481a1.94 1.94 0 0 0 .139-.78Zm3.7.788v-1.88h.908V32h-.871v-.595h-.035a.966.966 0 0 1-.368.463 1.08 1.08 0 0 1-.624.175c-.22 0-.412-.05-.578-.15a1.021 1.021 0 0 1-.39-.424 1.467 1.467 0 0 1-.14-.658v-2.084h.907v1.922c.002.193.053.346.156.458.102.113.24.169.411.169.11 0 .212-.025.307-.075a.584.584 0 0 0 .23-.226c.06-.1.089-.222.087-.369Zm3.375-1.88v.682h-1.971v-.682h1.97Zm-1.524-.784h.908v3.051c0 .084.013.15.038.196a.21.21 0 0 0 .107.096c.047.019.1.028.162.028a.778.778 0 0 0 .128-.01c.042-.01.075-.016.098-.02l.142.675a2.317 2.317 0 0 1-.191.05 1.52 1.52 0 0 1-.3.036c-.22.008-.411-.02-.576-.088a.803.803 0 0 1-.381-.31.951.951 0 0 1-.135-.533v-3.17Zm3.093-.307V32h-.908v-4.364h.908ZM74.825 32v-3.273h.908V32h-.908Zm.456-3.695a.493.493 0 0 1-.347-.134.435.435 0 0 1-.143-.326c0-.125.048-.232.143-.322a.489.489 0 0 1 .347-.136c.135 0 .25.046.345.136a.432.432 0 0 1 0 .648.485.485 0 0 1-.345.134Zm2.087 1.803V32h-.908v-3.273h.865v.578h.038a.913.913 0 0 1 .365-.452c.17-.112.377-.168.62-.168.227 0 .425.05.594.149.17.1.3.241.394.426.094.183.14.402.14.656V32h-.907v-1.922c.002-.2-.05-.356-.153-.469a.55.55 0 0 0-.428-.17.65.65 0 0 0-.324.079.549.549 0 0 0-.218.23.797.797 0 0 0-.078.36Zm4.316 1.956a1.75 1.75 0 0 1-.87-.205 1.401 1.401 0 0 1-.558-.583 1.93 1.93 0 0 1-.196-.897c0-.337.066-.633.196-.887s.315-.452.552-.594a1.61 1.61 0 0 1 .84-.213c.216 0 .416.035.603.104a1.343 1.343 0 0 1 .818.829c.078.207.117.45.117.729v.249h-2.764v-.563h1.91a.695.695 0 0 0-.086-.347.61.61 0 0 0-.236-.236.674.674 0 0 0-.348-.088.699.699 0 0 0-.366.096.673.673 0 0 0-.247.254.717.717 0 0 0-.092.351v.535c0 .162.03.302.09.42a.655.655 0 0 0 .258.273c.11.063.242.095.394.095.1 0 .193-.014.277-.042a.556.556 0 0 0 .352-.337l.839.055c-.043.202-.13.378-.262.529-.131.15-.3.265-.507.35a1.912 1.912 0 0 1-.714.123ZM56.5 167.199a.908.908 0 0 1-.471-.126.978.978 0 0 1-.341-.341.91.91 0 0 1-.126-.471c0-.173.042-.33.126-.471a.962.962 0 0 1 .34-.338.89.89 0 0 1 .472-.128.944.944 0 0 1 .938.937.898.898 0 0 1-.129.471.96.96 0 0 1-.338.341.9.9 0 0 1-.471.126Zm4.88.801v-4.364h1.72c.332 0 .614.064.847.19.233.125.41.299.532.522.124.222.186.477.186.767 0 .29-.063.546-.188.767a1.294 1.294 0 0 1-.543.518c-.236.123-.521.185-.857.185H61.98v-.739h.948a.932.932 0 0 0 .44-.092.601.601 0 0 0 .26-.258.802.802 0 0 0 .087-.381.785.785 0 0 0-.088-.379.583.583 0 0 0-.26-.254.951.951 0 0 0-.443-.091h-.622V168h-.923Zm3.867 0v-3.273h.88v.571h.034a.846.846 0 0 1 .3-.46.79.79 0 0 1 .486-.158 1.302 1.302 0 0 1 .286.032v.806a1.579 1.579 0 0 0-.383-.049.728.728 0 0 0-.359.087.64.64 0 0 0-.336.592V168h-.908Zm3.781.064c-.33 0-.617-.07-.858-.211a1.448 1.448 0 0 1-.556-.592 1.912 1.912 0 0 1-.196-.885 1.9 1.9 0 0 1 .196-.886 1.42 1.42 0 0 1 .556-.592 1.66 1.66 0 0 1 .858-.213c.331 0 .617.071.857.213.241.14.427.338.558.592.13.253.196.548.196.886 0 .336-.065.63-.196.885-.13.252-.317.45-.558.592-.24.141-.526.211-.857.211Zm.005-.703c.15 0 .276-.043.377-.128a.797.797 0 0 0 .228-.354c.052-.149.079-.319.079-.509s-.027-.36-.08-.509a.797.797 0 0 0-.227-.354.557.557 0 0 0-.377-.13.576.576 0 0 0-.384.13.804.804 0 0 0-.232.354 1.566 1.566 0 0 0-.077.509c0 .19.026.36.077.509a.8.8 0 0 0 .232.354.586.586 0 0 0 .384.128Zm2.196.639v-3.273h.865v.578h.039a.908.908 0 0 1 .34-.454.973.973 0 0 1 .572-.166c.224 0 .415.056.573.168a.791.791 0 0 1 .315.452h.034a.87.87 0 0 1 .362-.45c.177-.114.385-.17.625-.17.305 0 .553.097.743.292.192.193.288.467.288.822V168h-.906v-2.022c0-.182-.048-.318-.144-.409a.507.507 0 0 0-.363-.136.486.486 0 0 0-.385.157.596.596 0 0 0-.139.411V168h-.88v-2.041a.527.527 0 0 0-.138-.384.475.475 0 0 0-.36-.142.5.5 0 0 0-.463.287.674.674 0 0 0-.07.316V168h-.908Zm5.473 1.227v-4.5h.895v.55h.04a1.18 1.18 0 0 1 .173-.268.903.903 0 0 1 .298-.231 1.02 1.02 0 0 1 .46-.093c.24 0 .46.062.661.187.202.124.363.311.484.561.12.248.18.56.18.935 0 .365-.058.673-.176.925-.117.25-.276.439-.477.569-.2.127-.425.191-.674.191-.176 0-.326-.029-.45-.087a.915.915 0 0 1-.3-.22 1.102 1.102 0 0 1-.179-.27h-.027v1.751h-.908Zm.889-2.863c0 .194.027.364.08.509a.757.757 0 0 0 .235.339.592.592 0 0 0 .373.119.59.59 0 0 0 .375-.121.765.765 0 0 0 .232-.341c.054-.147.081-.315.081-.505a1.45 1.45 0 0 0-.079-.499.746.746 0 0 0-.232-.337.588.588 0 0 0-.377-.121.6.6 0 0 0-.375.117.733.733 0 0 0-.233.333c-.053.143-.08.312-.08.507Zm4.649-1.637v.682h-1.971v-.682h1.97Zm-1.524-.784h.908v3.051a.42.42 0 0 0 .038.196.208.208 0 0 0 .107.096.43.43 0 0 0 .162.028.788.788 0 0 0 .128-.011l.098-.019.142.676a2.92 2.92 0 0 1-.191.049 1.675 1.675 0 0 1-.3.036 1.383 1.383 0 0 1-.576-.088.796.796 0 0 1-.382-.311.948.948 0 0 1-.134-.532v-3.171Z"/>
  <path stroke="#000" d="m82.7 37 22.617 29.9-22.234 16.483 4.6 6.134L65.833 106 39 69.583 82.7 37Z"/>
  <path stroke="#00FF50" stroke-linejoin="round" stroke-width="4" d="m65.833 106 21.85-16.483-4.6-6.134L105.317 66.9"/>
  <path stroke="#0050FF" stroke-linecap="round" stroke-linejoin="round" stroke-width="4" d="M65.833 106 39 69.583 82.7 37l22.617 29.9"/>
  <path fill="#0050FF" d="M48.096 59.407a1.4 1.4 0 0 1-.677.29 1.202 1.202 0 0 1-.667-.116 1.591 1.591 0 0 1-.575-.49 1.587 1.587 0 0 1-.313-.688 1.178 1.178 0 0 1 .073-.673 1.38 1.38 0 0 1 .464-.572c.22-.166.446-.262.677-.288.231-.028.454.01.669.114.213.103.405.267.575.492.168.223.272.452.313.687a1.2 1.2 0 0 1-.075.674c-.09.214-.244.404-.464.57Zm-.35-.47a.47.47 0 0 0 .187-.275.66.66 0 0 0-.026-.35 1.27 1.27 0 0 0-.203-.378 1.273 1.273 0 0 0-.307-.3.66.66 0 0 0-.33-.12.465.465 0 0 0-.316.102.482.482 0 0 0-.19.28.666.666 0 0 0 .023.351c.04.125.109.25.204.377.096.127.198.227.307.3.11.074.22.113.332.12a.487.487 0 0 0 .32-.107Zm2.48-2.657-.942-1.25.604-.456 1.642 2.178-.58.438-.299-.396-.022.017a.806.806 0 0 1-.014.493.9.9 0 0 1-.328.429.855.855 0 0 1-.931.104 1.222 1.222 0 0 1-.424-.368l-1.045-1.387.604-.455.964 1.279a.552.552 0 0 0 .334.227.441.441 0 0 0 .358-.094.543.543 0 0 0 .166-.204.488.488 0 0 0 .04-.266.577.577 0 0 0-.126-.289Zm1.304-2.943.342.454-1.312.988-.342-.453 1.312-.989Zm-1.407.242.604-.455 1.53 2.03a.347.347 0 0 0 .124.112c.04.017.08.021.119.01a.368.368 0 0 0 .121-.062.647.647 0 0 0 .08-.072l.056-.061.434.377a2.154 2.154 0 0 1-.103.13 1.29 1.29 0 0 1-.182.174 1.15 1.15 0 0 1-.427.23.669.669 0 0 1-.41-.015.793.793 0 0 1-.356-.287l-1.59-2.11Zm4.053-1.262-.527.45a.359.359 0 0 0-.157-.081.405.405 0 0 0-.193 0 .525.525 0 0 0-.207.1.554.554 0 0 0-.192.239c-.035.087-.028.163.021.229a.21.21 0 0 0 .162.084.62.62 0 0 0 .28-.074l.453-.218c.245-.116.456-.165.632-.147a.619.619 0 0 1 .443.262c.107.143.16.3.157.471-.002.17-.053.341-.153.511-.1.169-.245.324-.434.467-.288.217-.563.33-.824.339a.878.878 0 0 1-.672-.268l.571-.479a.383.383 0 0 0 .282.103.594.594 0 0 0 .317-.132.592.592 0 0 0 .21-.253c.033-.09.026-.169-.022-.235a.209.209 0 0 0-.171-.082.626.626 0 0 0-.272.076l-.434.209c-.245.117-.459.163-.642.136a.687.687 0 0 1-.457-.284.735.735 0 0 1-.159-.448c0-.158.05-.317.146-.476.097-.16.24-.31.426-.45.275-.207.535-.312.78-.315a.843.843 0 0 1 .636.266Zm1.604 1.233-1.642-2.178.605-.456 1.64 2.178-.603.456Zm-1.55-2.688a.411.411 0 0 1-.298.085.363.363 0 0 1-.259-.145.355.355 0 0 1-.066-.286.408.408 0 0 1 .163-.265.401.401 0 0 1 .298-.082.36.36 0 0 1 .325.431.405.405 0 0 1-.163.262Zm3.467 1.298a1.028 1.028 0 0 1-.546.212 1.11 1.11 0 0 1-.603-.14 1.828 1.828 0 0 1-.58-.527c-.188-.25-.304-.488-.348-.714a1.082 1.082 0 0 1 .04-.614c.07-.185.186-.337.346-.457a.833.833 0 0 1 .352-.168.734.734 0 0 1 .314.004c.097.022.18.052.25.09l.02-.013-.823-1.092.602-.454 2.189 2.904-.596.449-.263-.349-.025.02a.977.977 0 0 1 .015.27.752.752 0 0 1-.09.297.862.862 0 0 1-.254.282Zm-.17-.624a.483.483 0 0 0 .186-.266.631.631 0 0 0-.014-.343 1.186 1.186 0 0 0-.2-.38c-.098-.13-.2-.229-.308-.297a.607.607 0 0 0-.323-.104.497.497 0 0 0-.307.11.49.49 0 0 0-.19.269.619.619 0 0 0 .014.34c.037.122.103.246.198.372.096.127.197.225.306.296a.65.65 0 0 0 .325.11.49.49 0 0 0 .312-.108Zm2.904-1.425a1.457 1.457 0 0 1-.681.3c-.23.03-.451-.007-.664-.108a1.608 1.608 0 0 1-.58-.499 1.595 1.595 0 0 1-.315-.688 1.208 1.208 0 0 1 .07-.673c.087-.214.237-.401.451-.562a1.41 1.41 0 0 1 .454-.233c.159-.049.32-.062.48-.04.164.02.323.081.48.181.156.099.304.24.443.426l.125.166-1.839 1.386-.282-.374 1.27-.958a.579.579 0 0 0-.23-.188.509.509 0 0 0-.276-.039.562.562 0 0 0-.275.116.582.582 0 0 0-.196.248.56.56 0 0 0-.037.292c.013.1.051.194.115.28l.268.356a.766.766 0 0 0 .27.235c.1.047.203.065.309.052a.646.646 0 0 0 .31-.134.715.715 0 0 0 .163-.167.463.463 0 0 0 .065-.4l.587-.385a.955.955 0 0 1 .09.483 1.098 1.098 0 0 1-.162.487 1.594 1.594 0 0 1-.413.44Zm2.716-2.113-2.234-1.731.61-.46 1.441 1.208.02-.015-.751-1.728.6-.452 1.453 1.186.019-.014-.765-1.705.61-.46 1.05 2.624-.64.482-1.406-1.088-.027.02.658 1.652-.638.481Zm3.619-2.662a1.137 1.137 0 0 1-.426.207.748.748 0 0 1-.422-.022.814.814 0 0 1-.365-.29.795.795 0 0 1-.163-.355.675.675 0 0 1 .032-.335c.039-.108.097-.211.175-.31.08-.1.169-.196.269-.287a8.26 8.26 0 0 0 .278-.268.545.545 0 0 0 .128-.18.148.148 0 0 0-.026-.145l-.006-.009a.327.327 0 0 0-.243-.144.437.437 0 0 0-.293.106.53.53 0 0 0-.205.267.417.417 0 0 0 .007.275l-.593.376a.95.95 0 0 1-.092-.47c.01-.16.061-.315.153-.466.093-.153.226-.294.4-.425.121-.092.248-.165.38-.22.132-.055.264-.086.395-.091a.803.803 0 0 1 .705.351l1.107 1.47-.573.43-.227-.301-.017.013a.77.77 0 0 1-.125.565c-.061.09-.145.176-.253.258Zm-.142-.548a.636.636 0 0 0 .196-.23.521.521 0 0 0 .052-.265.467.467 0 0 0-.097-.25l-.174-.23a.401.401 0 0 1-.053.092c-.025.034-.054.07-.089.11a6.68 6.68 0 0 1-.106.113l-.098.099a.94.94 0 0 0-.149.19.371.371 0 0 0-.054.184c0 .06.02.119.063.175.062.083.14.123.232.122a.489.489 0 0 0 .278-.11Zm.222-4.13 2.188 2.904-.604.455-2.189-2.904.605-.455Zm1.088-.82 2.188 2.904-.604.455-2.189-2.904.605-.455Z"/>
  <path fill="#00FF50" d="m82.925 101.815-1.641-2.178.604-.456 1.641 2.179-.604.455Zm-1.55-2.688a.411.411 0 0 1-.298.085.363.363 0 0 1-.324-.431.407.407 0 0 1 .162-.265.401.401 0 0 1 .298-.082.36.36 0 0 1 .325.431.405.405 0 0 1-.162.262Zm2.293.154.95 1.259-.605.455-1.641-2.178.576-.434.29.384.025-.019a.76.76 0 0 1 .016-.483.919.919 0 0 1 .328-.423.959.959 0 0 1 .47-.2.844.844 0 0 1 .476.087c.155.075.296.197.423.366l1.045 1.387-.604.455-.964-1.279c-.1-.134-.212-.212-.337-.235a.459.459 0 0 0-.37.101.542.542 0 0 0-.176.215.458.458 0 0 0-.03.262.665.665 0 0 0 .128.28Zm3.468-3.08-.527.45a.359.359 0 0 0-.157-.081.407.407 0 0 0-.193 0 .527.527 0 0 0-.207.1.553.553 0 0 0-.192.239c-.035.087-.028.163.021.228a.21.21 0 0 0 .162.085.62.62 0 0 0 .28-.075l.453-.217c.245-.117.456-.166.632-.147a.618.618 0 0 1 .442.262c.108.143.16.3.157.47a1.036 1.036 0 0 1-.152.512c-.1.168-.245.324-.434.466-.288.218-.563.33-.825.34a.879.879 0 0 1-.67-.268l.57-.48a.382.382 0 0 0 .282.104.593.593 0 0 0 .317-.132.592.592 0 0 0 .209-.253c.034-.091.027-.17-.022-.235a.209.209 0 0 0-.17-.083.623.623 0 0 0-.272.076l-.434.21c-.245.117-.459.163-.642.136a.687.687 0 0 1-.457-.285.735.735 0 0 1-.159-.447c0-.159.049-.317.146-.476.097-.16.24-.31.425-.45.276-.207.536-.313.781-.315a.844.844 0 0 1 .636.265Zm1.604 1.232-1.642-2.178.604-.455 1.642 2.178-.604.455Zm-1.55-2.687a.411.411 0 0 1-.298.085.363.363 0 0 1-.259-.146.355.355 0 0 1-.066-.285.408.408 0 0 1 .163-.265.402.402 0 0 1 .298-.083.351.351 0 0 1 .257.142.36.36 0 0 1 .068.29.404.404 0 0 1-.163.262Zm3.467 1.298a1.03 1.03 0 0 1-.546.211 1.106 1.106 0 0 1-.603-.139 1.826 1.826 0 0 1-.58-.528c-.188-.25-.304-.487-.348-.713a1.083 1.083 0 0 1 .04-.615c.07-.184.186-.336.346-.457a.833.833 0 0 1 .352-.167.736.736 0 0 1 .314.004c.096.022.18.052.25.09l.02-.013-.824-1.092.603-.454 2.189 2.904-.596.449-.263-.35-.025.02a.977.977 0 0 1 .015.27.749.749 0 0 1-.09.298.861.861 0 0 1-.254.282Zm-.17-.625a.484.484 0 0 0 .186-.265.63.63 0 0 0-.014-.343 1.183 1.183 0 0 0-.2-.38 1.2 1.2 0 0 0-.308-.298.607.607 0 0 0-.323-.103.497.497 0 0 0-.307.109.49.49 0 0 0-.19.27.62.62 0 0 0 .014.34c.037.122.103.246.198.372.095.126.197.225.306.296.108.07.217.106.325.11a.49.49 0 0 0 .312-.108Zm2.904-1.424a1.457 1.457 0 0 1-.681.3c-.23.03-.451-.007-.665-.109a1.609 1.609 0 0 1-.58-.498 1.596 1.596 0 0 1-.314-.689 1.207 1.207 0 0 1 .07-.672c.087-.214.237-.402.451-.563.144-.108.295-.186.454-.233a1.115 1.115 0 0 1 .96.142c.156.099.304.24.443.426l.125.166-1.839 1.386-.282-.375 1.27-.957a.579.579 0 0 0-.23-.189.508.508 0 0 0-.276-.038.563.563 0 0 0-.275.116.582.582 0 0 0-.196.247.56.56 0 0 0-.037.293c.013.1.051.193.115.28l.268.356a.767.767 0 0 0 .27.234c.1.048.203.066.309.053a.647.647 0 0 0 .31-.134.719.719 0 0 0 .163-.168.464.464 0 0 0 .065-.4l.587-.384a.955.955 0 0 1 .09.483 1.097 1.097 0 0 1-.162.487 1.593 1.593 0 0 1-.413.44Zm2.716-2.113-2.234-1.732.61-.46 1.441 1.209.02-.015-.751-1.728.6-.452 1.453 1.185.019-.014-.765-1.704.61-.46 1.05 2.624-.64.482-1.406-1.088-.027.02.658 1.652-.638.48Zm3.619-2.663a1.136 1.136 0 0 1-.427.208.75.75 0 0 1-.421-.023.813.813 0 0 1-.365-.29.794.794 0 0 1-.163-.354.675.675 0 0 1 .032-.336c.039-.107.097-.21.175-.31.08-.1.169-.195.269-.286.116-.11.21-.198.278-.268a.545.545 0 0 0 .128-.181.148.148 0 0 0-.026-.145l-.007-.008a.327.327 0 0 0-.242-.144.437.437 0 0 0-.294.105.53.53 0 0 0-.205.268.417.417 0 0 0 .007.275l-.593.376a.95.95 0 0 1-.09-.47c.01-.16.06-.315.152-.466.093-.153.226-.295.4-.426.12-.091.247-.164.38-.22.132-.055.264-.085.395-.09a.804.804 0 0 1 .705.35l1.107 1.47-.573.432-.227-.302-.017.012a.786.786 0 0 1-.005.286.805.805 0 0 1-.12.28c-.061.09-.146.176-.253.257Zm-.142-.547a.636.636 0 0 0 .196-.23.522.522 0 0 0 .052-.265.467.467 0 0 0-.097-.25l-.174-.23a.407.407 0 0 1-.053.092 1.8 1.8 0 0 1-.195.222l-.099.1a.935.935 0 0 0-.148.189.372.372 0 0 0-.054.185c0 .06.02.118.063.175.062.082.14.123.232.121a.489.489 0 0 0 .277-.109Zm.221-4.13 2.189 2.903-.604.456-2.189-2.904.605-.456Zm1.088-.82 2.189 2.904-.604.455-2.189-2.904.604-.456Z"/>
  <path fill="red" d="M91.094 85.732a1.457 1.457 0 0 1-.681.3 1.164 1.164 0 0 1-.665-.11 1.608 1.608 0 0 1-.58-.498 1.595 1.595 0 0 1-.314-.688 1.207 1.207 0 0 1 .07-.672c.087-.214.237-.402.451-.563.144-.108.295-.186.454-.233a1.115 1.115 0 0 1 .96.141c.156.1.304.241.443.426l.125.166-1.839 1.386-.282-.374 1.27-.958a.58.58 0 0 0-.23-.188.508.508 0 0 0-.276-.039.563.563 0 0 0-.275.116.581.581 0 0 0-.196.248.56.56 0 0 0-.037.293c.013.1.051.193.115.28l.268.356a.766.766 0 0 0 .27.234c.1.048.203.065.309.052a.646.646 0 0 0 .31-.134.715.715 0 0 0 .163-.167.462.462 0 0 0 .065-.4l.587-.385a.955.955 0 0 1 .09.484 1.097 1.097 0 0 1-.162.486 1.595 1.595 0 0 1-.413.44Zm1.017-2.808.949 1.26-.604.455-1.642-2.178.576-.434.29.384.025-.02a.761.761 0 0 1 .016-.483.92.92 0 0 1 .328-.422.96.96 0 0 1 .47-.2.844.844 0 0 1 .477.087c.154.075.295.197.423.366l1.045 1.387-.605.455-.963-1.28c-.1-.133-.212-.212-.338-.234a.459.459 0 0 0-.37.101.542.542 0 0 0-.176.215.458.458 0 0 0-.03.262.663.663 0 0 0 .129.28Zm2.346-3.208.342.454-1.312.988-.342-.454 1.312-.988Zm-1.407.242.604-.455 1.53 2.03a.345.345 0 0 0 .124.112c.04.017.08.02.119.01a.368.368 0 0 0 .122-.063.653.653 0 0 0 .08-.071l.055-.062.434.378a2.083 2.083 0 0 1-.103.129 1.285 1.285 0 0 1-.182.175 1.15 1.15 0 0 1-.427.23.669.669 0 0 1-.41-.016.793.793 0 0 1-.356-.287l-1.59-2.11Zm3.442 1.64-1.642-2.179.586-.441.286.38.023-.017a.705.705 0 0 1-.03-.457.658.658 0 0 1 .243-.349 1.16 1.16 0 0 1 .207-.122l.403.536a1.324 1.324 0 0 0-.28.16.605.605 0 0 0-.194.238.537.537 0 0 0 .073.563l.929 1.232-.604.455Zm2.223-1.612a1.137 1.137 0 0 1-.426.208.749.749 0 0 1-.421-.023.814.814 0 0 1-.365-.29.795.795 0 0 1-.163-.354.675.675 0 0 1 .032-.336c.038-.108.097-.21.175-.31.08-.1.169-.195.269-.287.116-.108.21-.197.278-.267a.545.545 0 0 0 .128-.181.148.148 0 0 0-.026-.145l-.007-.008a.327.327 0 0 0-.242-.145.437.437 0 0 0-.294.106.53.53 0 0 0-.205.268.417.417 0 0 0 .007.275l-.593.376a.95.95 0 0 1-.09-.47.995.995 0 0 1 .152-.466c.093-.153.226-.295.4-.426a1.74 1.74 0 0 1 .38-.22 1.14 1.14 0 0 1 .395-.09.803.803 0 0 1 .705.35l1.107 1.47-.573.431-.227-.302-.017.013a.77.77 0 0 1-.126.566c-.06.09-.145.176-.253.257Zm-.14-.547a.635.635 0 0 0 .195-.23.522.522 0 0 0 .051-.265.466.466 0 0 0-.096-.25l-.175-.23a.403.403 0 0 1-.052.092 1.8 1.8 0 0 1-.195.222l-.099.1a.935.935 0 0 0-.148.189.371.371 0 0 0-.054.185c0 .06.02.118.063.175.062.082.14.123.231.121a.488.488 0 0 0 .278-.11Zm1.46-2.486.949 1.26-.604.455-1.642-2.178.576-.434.29.384.025-.02a.76.76 0 0 1 .016-.483.92.92 0 0 1 .328-.423.96.96 0 0 1 .471-.198.845.845 0 0 1 .476.085 1.2 1.2 0 0 1 .423.367l1.045 1.386-.605.456-.963-1.28c-.1-.133-.212-.212-.338-.234a.458.458 0 0 0-.37.101.545.545 0 0 0-.176.215.458.458 0 0 0-.03.262.663.663 0 0 0 .129.28Zm3.845-.856a1.397 1.397 0 0 1-.683.292 1.202 1.202 0 0 1-.668-.12 1.602 1.602 0 0 1-.567-.488 1.588 1.588 0 0 1-.314-.684 1.21 1.21 0 0 1 .072-.674c.088-.216.242-.407.462-.573.19-.143.383-.234.577-.273.195-.038.381-.027.558.035.178.063.334.175.469.337l-.57.429a.55.55 0 0 0-.325-.166.457.457 0 0 0-.344.101.508.508 0 0 0-.188.262.612.612 0 0 0 .004.341c.034.126.103.257.206.394.105.14.213.243.324.312a.615.615 0 0 0 .331.1.51.51 0 0 0 .303-.108.506.506 0 0 0 .154-.183.45.45 0 0 0 .044-.227.59.59 0 0 0-.076-.252l.57-.43c.116.174.181.355.195.543.014.186-.023.368-.111.546-.088.178-.229.34-.423.486Zm2.352-1.773a1.457 1.457 0 0 1-.681.3c-.23.03-.451-.007-.664-.108a1.607 1.607 0 0 1-.581-.5 1.597 1.597 0 0 1-.314-.687 1.218 1.218 0 0 1 .069-.673 1.35 1.35 0 0 1 .452-.563c.144-.108.295-.186.454-.233a1.122 1.122 0 0 1 .96.142c.156.099.304.24.443.426l.125.166-1.839 1.386-.282-.375 1.271-.957a.585.585 0 0 0-.231-.188.511.511 0 0 0-.276-.04.56.56 0 0 0-.275.117.581.581 0 0 0-.196.247.595.595 0 0 0 .078.573l.268.356a.772.772 0 0 0 .27.235c.1.047.203.065.309.052a.643.643 0 0 0 .31-.134.707.707 0 0 0 .163-.168.469.469 0 0 0 .065-.4l.587-.384a.946.946 0 0 1 .09.483 1.094 1.094 0 0 1-.162.487 1.59 1.59 0 0 1-.413.44Z"/>
  <rect width="135" height="14" x="159.5" y=".5" fill="#fff" stroke="#4D1D95" rx="2.5"/>
  <path fill="#4D1D95" d="M192.915 5.819a.898.898 0 0 0-.365-.668c-.216-.158-.508-.238-.878-.238-.251 0-.462.036-.635.107a.893.893 0 0 0-.398.288.692.692 0 0 0-.135.419.598.598 0 0 0 .082.34.84.84 0 0 0 .252.253c.106.068.23.129.369.18.14.05.289.093.448.129l.653.156c.317.07.608.166.874.284.265.118.494.264.689.437.194.172.344.376.451.61.108.235.164.504.166.807a2.014 2.014 0 0 1-.34 1.157c-.223.325-.545.577-.966.757-.419.177-.925.266-1.517.266-.587 0-1.098-.09-1.534-.27a2.242 2.242 0 0 1-1.015-.799c-.242-.355-.369-.794-.38-1.317h1.488c.016.243.086.447.209.61.126.161.292.283.501.366.21.08.448.12.714.12.26 0 .486-.037.678-.113.194-.075.344-.18.451-.316a.733.733 0 0 0 .16-.465c0-.163-.049-.3-.146-.412a1.103 1.103 0 0 0-.419-.284 4.254 4.254 0 0 0-.671-.213l-.792-.199c-.613-.15-1.097-.382-1.453-.7-.355-.317-.531-.744-.529-1.281-.002-.44.115-.825.352-1.155a2.37 2.37 0 0 1 .984-.77c.416-.185.89-.277 1.42-.277.54 0 1.011.092 1.413.277.405.184.72.441.945.77.225.33.341.71.348 1.144h-1.474Zm5.481-.274v1.137h-3.285V5.545h3.285Zm-2.539-1.306h1.512v5.085a.7.7 0 0 0 .064.327.354.354 0 0 0 .178.16c.078.03.168.046.27.046.071 0 .142-.006.213-.018l.163-.032.238 1.125a4.144 4.144 0 0 1-.32.082 2.56 2.56 0 0 1-.5.06 2.3 2.3 0 0 1-.959-.145 1.343 1.343 0 0 1-.636-.518c-.151-.235-.226-.53-.223-.888V4.239Zm5.079 6.864c-.348 0-.658-.06-.93-.181a1.495 1.495 0 0 1-.646-.543c-.157-.242-.235-.543-.235-.902 0-.303.056-.558.167-.764.112-.206.263-.372.455-.497.192-.126.409-.22.653-.284.246-.064.504-.11.774-.135a20 20 0 0 0 .767-.092c.195-.031.335-.076.423-.135a.295.295 0 0 0 .131-.263v-.021c0-.225-.071-.4-.213-.523-.139-.123-.338-.184-.596-.184-.273 0-.489.06-.65.18a.833.833 0 0 0-.32.448l-1.399-.113c.071-.332.211-.618.419-.86.208-.243.477-.43.806-.56a3.085 3.085 0 0 1 1.151-.2c.303 0 .593.036.87.107.279.071.527.181.742.33.218.15.389.341.515.576.125.232.188.51.188.834V11h-1.434v-.756h-.043c-.088.17-.205.32-.352.45a1.617 1.617 0 0 1-.529.302 2.186 2.186 0 0 1-.714.107Zm.434-1.044c.222 0 .419-.044.589-.131.171-.09.304-.211.401-.363a.927.927 0 0 0 .146-.515v-.578a.799.799 0 0 1-.195.085 3.621 3.621 0 0 1-.274.067c-.102.02-.203.037-.305.054a82.31 82.31 0 0 0-.277.039 1.858 1.858 0 0 0-.465.124.739.739 0 0 0-.309.23.559.559 0 0 0-.11.356c0 .206.074.363.223.472a.98.98 0 0 0 .576.16Zm3.84.941V3.727h1.513v2.735h.046c.066-.147.162-.296.288-.448a1.5 1.5 0 0 1 .497-.383c.206-.104.462-.157.767-.157.398 0 .765.105 1.101.313.336.206.605.517.806.934.201.414.302.934.302 1.559 0 .608-.098 1.122-.295 1.541-.194.417-.459.733-.795.948-.334.213-.708.32-1.123.32a1.75 1.75 0 0 1-.749-.146 1.567 1.567 0 0 1-.501-.366c-.13-.149-.229-.3-.298-.45h-.067V11h-1.492Zm1.481-2.727c0 .324.045.607.135.848.09.242.22.43.391.565a.98.98 0 0 0 .621.199.975.975 0 0 0 .625-.202c.171-.138.3-.327.387-.569a2.42 2.42 0 0 0 .135-.841c0-.315-.044-.592-.131-.831a1.244 1.244 0 0 0-.387-.561.983.983 0 0 0-.629-.203 1 1 0 0 0-.625.196 1.22 1.22 0 0 0-.387.554c-.09.239-.135.52-.135.845Zm6.361-4.546V11h-1.513V3.727h1.513Zm3.698 7.38c-.561 0-1.044-.114-1.449-.341a2.334 2.334 0 0 1-.931-.973c-.217-.422-.326-.92-.326-1.495 0-.561.109-1.054.326-1.478a2.42 2.42 0 0 1 .92-.99c.398-.237.864-.356 1.399-.356.36 0 .695.058 1.005.174.313.114.585.286.817.515.234.23.417.519.547.867.13.345.195.75.195 1.214v.416h-4.606v-.938h3.182c0-.218-.047-.41-.142-.579a1.02 1.02 0 0 0-.394-.394 1.126 1.126 0 0 0-.579-.145c-.23 0-.433.053-.611.16a1.126 1.126 0 0 0-.412.422c-.099.175-.15.37-.152.586v.891c0 .27.049.503.149.7.102.196.245.348.43.454.184.107.403.16.657.16.168 0 .321-.023.461-.07a.961.961 0 0 0 .359-.214.93.93 0 0 0 .227-.348l1.399.092a1.9 1.9 0 0 1-.437.881 2.184 2.184 0 0 1-.845.583c-.343.137-.74.206-1.189.206Zm7.815-.018c-.414 0-.79-.107-1.126-.32-.334-.215-.599-.531-.795-.948-.194-.419-.292-.933-.292-1.541 0-.625.101-1.145.302-1.56.202-.416.469-.727.803-.933a2.055 2.055 0 0 1 1.104-.313c.306 0 .56.053.764.157.206.101.371.23.497.383.128.152.225.3.291.448h.046V3.727h1.51V11h-1.492v-.874h-.064a1.956 1.956 0 0 1-.302.451 1.499 1.499 0 0 1-.5.366 1.729 1.729 0 0 1-.746.146Zm.479-1.204c.244 0 .45-.066.618-.199.171-.135.301-.323.391-.565.092-.241.138-.524.138-.848 0-.325-.045-.606-.135-.845a1.21 1.21 0 0 0-.39-.554.996.996 0 0 0-.622-.196.98.98 0 0 0-.628.203 1.23 1.23 0 0 0-.387.56 2.4 2.4 0 0 0-.132.832c0 .317.044.598.132.841.09.242.219.431.387.569a.98.98 0 0 0 .628.202ZM228.912 11V5.545h1.513V11h-1.513Zm.76-6.158a.822.822 0 0 1-.579-.223.728.728 0 0 1-.238-.544c0-.208.08-.387.238-.536a.815.815 0 0 1 .579-.227c.225 0 .417.076.576.227a.723.723 0 0 1 0 1.08.812.812 0 0 1-.576.223Zm4.898.703v1.137h-3.366V5.545h3.366ZM231.974 11V5.151c0-.395.077-.723.231-.983a1.48 1.48 0 0 1 .639-.586c.27-.13.577-.196.92-.196a4.098 4.098 0 0 1 1.069.15l-.27 1.136a1.907 1.907 0 0 0-.22-.053 1.374 1.374 0 0 0-.263-.025c-.222 0-.378.052-.465.156-.088.102-.132.245-.132.43V11h-1.509Zm6.454-5.455v1.137h-3.367V5.545h3.367ZM235.832 11V5.151c0-.395.077-.723.23-.983.157-.26.37-.456.64-.586.27-.13.576-.196.919-.196a4.04 4.04 0 0 1 1.069.15l-.27 1.136a1.857 1.857 0 0 0-.22-.053 1.371 1.371 0 0 0-.262-.025c-.223 0-.378.052-.466.156-.087.102-.131.245-.131.43V11h-1.509Zm7.018-2.322V5.545h1.512V11h-1.452v-.99h-.057a1.613 1.613 0 0 1-.614.77c-.284.194-.631.291-1.041.291-.364 0-.685-.083-.962-.249a1.707 1.707 0 0 1-.65-.706c-.154-.306-.232-.671-.234-1.098V5.545h1.513V8.75c.002.322.088.576.259.763.17.187.399.28.685.28.182 0 .353-.04.511-.124a.974.974 0 0 0 .384-.376 1.16 1.16 0 0 0 .146-.614Zm7.261-1.577-1.385.085a.721.721 0 0 0-.153-.32.809.809 0 0 0-.309-.23 1.049 1.049 0 0 0-.451-.09c-.234 0-.432.05-.593.15-.161.097-.241.227-.241.39 0 .13.052.24.156.33.104.09.283.163.536.218l.987.198c.531.11.926.284 1.186.526.261.241.391.559.391.952 0 .357-.105.67-.316.94a2.05 2.05 0 0 1-.859.633c-.363.149-.78.224-1.254.224-.722 0-1.297-.15-1.726-.451a1.756 1.756 0 0 1-.749-1.236l1.488-.078c.045.22.154.388.327.504.172.114.394.17.664.17.265 0 .478-.05.639-.152.163-.105.246-.238.248-.402a.415.415 0 0 0-.174-.337c-.113-.09-.288-.159-.525-.206l-.945-.188c-.532-.107-.929-.291-1.189-.554-.258-.263-.387-.598-.387-1.005 0-.35.094-.652.284-.906a1.82 1.82 0 0 1 .806-.586c.348-.137.755-.206 1.221-.206.689 0 1.231.146 1.627.437.398.291.63.688.696 1.19ZM251.188 11V5.545h1.512V11h-1.512Zm.76-6.158a.822.822 0 0 1-.579-.223.724.724 0 0 1-.238-.544.71.71 0 0 1 .238-.536.815.815 0 0 1 .579-.227c.225 0 .416.076.575.227.161.15.241.328.241.536a.72.72 0 0 1-.241.544.81.81 0 0 1-.575.223Zm4.429 6.265c-.552 0-1.029-.118-1.431-.352a2.408 2.408 0 0 1-.927-.987c-.218-.424-.327-.915-.327-1.474 0-.563.109-1.056.327-1.477a2.38 2.38 0 0 1 .927-.987c.402-.237.879-.356 1.431-.356.551 0 1.027.119 1.427.356.403.234.713.563.931.987.218.421.326.914.326 1.477 0 .559-.108 1.05-.326 1.474-.218.421-.528.75-.931.987-.4.234-.876.351-1.427.351Zm.007-1.172c.251 0 .46-.071.628-.213.169-.145.295-.341.38-.59a2.53 2.53 0 0 0 .132-.849c0-.317-.044-.6-.132-.848a1.312 1.312 0 0 0-.38-.59.929.929 0 0 0-.628-.216.962.962 0 0 0-.639.216c-.171.145-.3.341-.387.59a2.59 2.59 0 0 0-.128.848c0 .318.042.6.128.85.087.248.216.444.387.589a.972.972 0 0 0 .639.213Zm5.174-2.088V11h-1.513V5.545h1.442v.963h.064c.121-.317.323-.568.607-.753.284-.187.629-.28 1.033-.28.379 0 .709.082.991.248.282.166.501.402.657.71.156.306.235.67.235 1.094V11h-1.513V7.797c.002-.334-.083-.594-.256-.781-.173-.19-.411-.284-.714-.284a1.09 1.09 0 0 0-.54.13.923.923 0 0 0-.362.384 1.327 1.327 0 0 0-.131.6Z"/>
  <rect width="135" height="14" x="319.5" y=".5" fill="#fff" stroke="#4D1D95" rx="2.5"/>
  <path fill="#4D1D95" d="M339.486 6.078a1.602 1.602 0 0 0-.21-.458 1.424 1.424 0 0 0-.77-.558 1.868 1.868 0 0 0-.544-.074c-.371 0-.698.092-.98.277a1.817 1.817 0 0 0-.653.806c-.156.35-.235.779-.235 1.286 0 .506.077.937.231 1.292.154.355.372.626.654.813.281.185.614.277.998.277.348 0 .645-.061.891-.184.248-.126.438-.302.568-.53.133-.227.199-.495.199-.806l.312.047h-1.875V7.108h3.044v.916c0 .64-.135 1.189-.405 1.648-.27.457-.642.81-1.115 1.058-.474.246-1.016.37-1.627.37-.681 0-1.28-.15-1.796-.452a3.126 3.126 0 0 1-1.208-1.289c-.286-.558-.429-1.221-.429-1.988 0-.59.085-1.115.255-1.577a3.36 3.36 0 0 1 .725-1.179c.31-.322.671-.567 1.083-.735a3.51 3.51 0 0 1 1.339-.252c.411 0 .795.06 1.15.18.355.12.67.287.945.505.277.218.503.477.678.778.175.298.288.627.337.987h-1.562Zm5.242 5.029c-.561 0-1.044-.114-1.449-.341a2.338 2.338 0 0 1-.93-.973c-.218-.422-.327-.92-.327-1.495 0-.561.109-1.054.327-1.478a2.41 2.41 0 0 1 .92-.99c.397-.237.864-.356 1.399-.356.36 0 .695.058 1.005.174.312.114.585.286.817.515.234.23.416.519.546.867.131.345.196.75.196 1.214v.416h-4.606v-.938h3.182c0-.218-.048-.41-.142-.579a1.016 1.016 0 0 0-.395-.394 1.12 1.12 0 0 0-.578-.145c-.23 0-.434.053-.611.16a1.119 1.119 0 0 0-.412.422c-.1.175-.15.37-.153.586v.891c0 .27.05.503.149.7.102.196.245.348.43.454.185.107.404.16.657.16.168 0 .322-.023.462-.07a.92.92 0 0 0 .586-.561l1.399.091a1.91 1.91 0 0 1-.437.881c-.218.249-.5.443-.845.583-.343.137-.74.206-1.19.206Zm5.004-3.26V11h-1.513V5.545h1.442v.963h.064a1.52 1.52 0 0 1 .607-.753c.284-.187.628-.28 1.033-.28.379 0 .709.082.991.248.282.166.501.402.657.71.156.306.234.67.234 1.094V11h-1.512V7.797c.002-.334-.083-.594-.256-.781-.173-.19-.411-.284-.714-.284-.204 0-.383.043-.54.13a.917.917 0 0 0-.362.384 1.327 1.327 0 0 0-.131.6Zm7.193 3.26c-.561 0-1.044-.114-1.448-.341a2.334 2.334 0 0 1-.931-.973c-.218-.422-.327-.92-.327-1.495 0-.561.109-1.054.327-1.478a2.42 2.42 0 0 1 .92-.99c.398-.237.864-.356 1.399-.356.36 0 .695.058 1.005.174.313.114.585.286.817.515.234.23.416.519.547.867.13.345.195.75.195 1.214v.416h-4.606v-.938h3.182c0-.218-.047-.41-.142-.579a1.02 1.02 0 0 0-.394-.394 1.126 1.126 0 0 0-.579-.145c-.23 0-.433.053-.611.16a1.126 1.126 0 0 0-.412.422c-.099.175-.15.37-.153.586v.891c0 .27.05.503.15.7.101.196.245.348.429.454.185.107.404.16.657.16.168 0 .322-.023.462-.07a.961.961 0 0 0 .359-.214.93.93 0 0 0 .227-.348l1.399.092a1.91 1.91 0 0 1-.437.881 2.191 2.191 0 0 1-.845.583c-.343.137-.74.206-1.19.206Zm3.491-.107V5.545h1.467v.952h.057c.099-.338.266-.594.5-.767a1.32 1.32 0 0 1 .81-.263 2.29 2.29 0 0 1 .476.054v1.342a1.966 1.966 0 0 0-.295-.057 2.638 2.638 0 0 0-.344-.025 1.21 1.21 0 0 0-.597.146 1.071 1.071 0 0 0-.561.988V11h-1.513Zm5.491.103c-.348 0-.658-.06-.93-.181a1.498 1.498 0 0 1-.647-.543c-.156-.242-.234-.543-.234-.902 0-.303.056-.558.167-.764.111-.206.263-.372.455-.497a2.18 2.18 0 0 1 .653-.284c.246-.064.504-.11.774-.135.317-.033.573-.064.767-.092.194-.031.335-.076.423-.135a.298.298 0 0 0 .131-.263v-.021c0-.225-.071-.4-.213-.523-.14-.123-.339-.184-.597-.184-.272 0-.488.06-.649.18a.833.833 0 0 0-.32.448l-1.399-.113c.071-.332.211-.618.419-.86.208-.243.477-.43.806-.56a3.082 3.082 0 0 1 1.151-.2c.303 0 .593.036.87.107.279.071.526.181.742.33.218.15.389.341.515.576.125.232.188.51.188.834V11h-1.435v-.756h-.042c-.088.17-.205.32-.352.45a1.628 1.628 0 0 1-.529.302 2.186 2.186 0 0 1-.714.107Zm.433-1.044c.223 0 .419-.044.59-.131.17-.09.304-.211.401-.363a.935.935 0 0 0 .146-.515v-.578a.826.826 0 0 1-.196.085c-.08.023-.171.046-.273.067-.102.02-.204.037-.305.054l-.277.039a1.878 1.878 0 0 0-.466.124.752.752 0 0 0-.309.23.565.565 0 0 0-.11.356.55.55 0 0 0 .224.472c.152.107.343.16.575.16Zm6.714-4.514v1.137h-3.285V5.545h3.285Zm-2.539-1.306h1.513v5.085a.7.7 0 0 0 .063.327.354.354 0 0 0 .178.16c.078.03.168.046.27.046.071 0 .142-.006.213-.018l.163-.032.238 1.125a4.22 4.22 0 0 1-.319.082 2.58 2.58 0 0 1-.501.06 2.3 2.3 0 0 1-.959-.145 1.343 1.343 0 0 1-.636-.518c-.151-.235-.226-.53-.223-.888V4.239Zm5.951 6.868c-.561 0-1.044-.114-1.448-.341a2.334 2.334 0 0 1-.931-.973c-.218-.422-.327-.92-.327-1.495 0-.561.109-1.054.327-1.478a2.42 2.42 0 0 1 .92-.99c.398-.237.864-.356 1.399-.356.36 0 .695.058 1.005.174.313.114.585.286.817.515.234.23.416.519.547.867.13.345.195.75.195 1.214v.416h-4.606v-.938h3.182c0-.218-.047-.41-.142-.579a1.02 1.02 0 0 0-.394-.394 1.126 1.126 0 0 0-.579-.145c-.23 0-.433.053-.611.16a1.126 1.126 0 0 0-.412.422c-.099.175-.15.37-.152.586v.891c0 .27.049.503.149.7.101.196.245.348.429.454.185.107.404.16.657.16.168 0 .322-.023.462-.07a.961.961 0 0 0 .359-.214.93.93 0 0 0 .227-.348l1.399.092a1.91 1.91 0 0 1-.437.881 2.191 2.191 0 0 1-.845.583c-.343.137-.74.206-1.19.206Zm5.501-.018c-.414 0-.789-.107-1.126-.32-.333-.215-.599-.531-.795-.948-.194-.419-.291-.933-.291-1.541 0-.625.1-1.145.302-1.56.201-.416.468-.727.802-.933a2.058 2.058 0 0 1 1.105-.313c.305 0 .559.053.763.157.206.101.372.23.497.383.128.152.225.3.291.448h.047V3.727h1.509V11h-1.492v-.874h-.064a1.95 1.95 0 0 1-.301.451 1.503 1.503 0 0 1-.501.366 1.726 1.726 0 0 1-.746.146Zm.48-1.204a.966.966 0 0 0 .617-.199c.171-.135.301-.323.391-.565.092-.241.139-.524.139-.848 0-.325-.045-.606-.135-.845a1.217 1.217 0 0 0-.391-.554.993.993 0 0 0-.621-.196.98.98 0 0 0-.629.203c-.17.135-.299.322-.387.56a2.4 2.4 0 0 0-.131.832c0 .317.043.598.131.841.09.242.219.431.387.569a.98.98 0 0 0 .629.202Zm9.115-4.34v1.137h-3.366V5.545h3.366ZM388.966 11V5.151c0-.395.077-.723.231-.983.157-.26.37-.456.639-.586.27-.13.577-.196.92-.196a4.098 4.098 0 0 1 1.069.15l-.27 1.136a1.857 1.857 0 0 0-.22-.053 1.374 1.374 0 0 0-.263-.025c-.222 0-.377.052-.465.156-.088.102-.131.245-.131.43V11h-1.51Zm5.033-7.273V11h-1.512V3.727h1.512Zm3.677 7.38c-.552 0-1.029-.118-1.432-.352a2.4 2.4 0 0 1-.926-.987c-.218-.424-.327-.915-.327-1.474 0-.563.109-1.056.327-1.477a2.37 2.37 0 0 1 .926-.987c.403-.237.88-.356 1.432-.356.551 0 1.027.119 1.427.356.403.234.713.563.931.987.217.421.326.914.326 1.477 0 .559-.109 1.05-.326 1.474-.218.421-.528.75-.931.987-.4.234-.876.351-1.427.351Zm.007-1.172c.251 0 .46-.071.628-.213a1.32 1.32 0 0 0 .38-.59 2.53 2.53 0 0 0 .132-.849c0-.317-.044-.6-.132-.848a1.32 1.32 0 0 0-.38-.59.929.929 0 0 0-.628-.216.96.96 0 0 0-.639.216c-.171.145-.3.341-.388.59a2.617 2.617 0 0 0-.127.848c0 .318.042.6.127.85.088.248.217.444.388.589a.97.97 0 0 0 .639.213Zm6.125 1.171c-.551 0-1.028-.117-1.431-.351a2.408 2.408 0 0 1-.927-.987c-.217-.424-.326-.915-.326-1.474 0-.563.109-1.056.326-1.477a2.38 2.38 0 0 1 .927-.987c.403-.237.88-.356 1.431-.356.552 0 1.028.119 1.428.356.402.234.713.563.93.987.218.421.327.914.327 1.477 0 .559-.109 1.05-.327 1.474a2.4 2.4 0 0 1-.93.987c-.4.234-.876.351-1.428.351Zm.008-1.171a.94.94 0 0 0 .628-.213 1.32 1.32 0 0 0 .38-.59c.088-.248.131-.531.131-.849 0-.317-.043-.6-.131-.848a1.32 1.32 0 0 0-.38-.59.93.93 0 0 0-.628-.216.965.965 0 0 0-.64.216 1.34 1.34 0 0 0-.387.59 2.616 2.616 0 0 0-.128.848c0 .318.043.6.128.85.088.248.217.444.387.589a.975.975 0 0 0 .64.213ZM407.477 11V5.545h1.466v.952H409c.1-.338.267-.594.501-.767.234-.175.504-.263.81-.263a2.305 2.305 0 0 1 .475.054v1.342a2.664 2.664 0 0 0-.639-.082 1.21 1.21 0 0 0-.596.146 1.065 1.065 0 0 0-.412.398c-.1.17-.149.367-.149.59V11h-1.513Zm6.406 2.046v-7.5h1.491v.916h.068c.066-.147.162-.296.288-.448a1.49 1.49 0 0 1 .497-.383c.206-.104.461-.157.767-.157.398 0 .764.105 1.101.313.336.206.605.517.806.934.201.414.302.934.302 1.559 0 .608-.099 1.122-.295 1.541-.194.417-.459.733-.796.948-.333.213-.707.32-1.122.32a1.75 1.75 0 0 1-.749-.146 1.545 1.545 0 0 1-.501-.366c-.13-.149-.229-.3-.298-.45h-.046v2.918h-1.513Zm1.481-4.773c0 .324.045.607.135.848.09.242.22.43.39.565a.984.984 0 0 0 .622.199.977.977 0 0 0 .625-.202c.17-.138.299-.327.387-.569a2.42 2.42 0 0 0 .135-.841 2.4 2.4 0 0 0-.132-.831 1.23 1.23 0 0 0-.387-.561.98.98 0 0 0-.628-.203.999.999 0 0 0-.625.196 1.22 1.22 0 0 0-.387.554c-.09.239-.135.52-.135.845Zm6.36-4.546V11h-1.513V3.727h1.513Zm2.767 7.376c-.348 0-.658-.06-.93-.181a1.498 1.498 0 0 1-.647-.543c-.156-.242-.234-.543-.234-.902 0-.303.056-.558.167-.764a1.35 1.35 0 0 1 .454-.497c.192-.126.41-.22.654-.284.246-.064.504-.11.774-.135.317-.033.573-.064.767-.092.194-.031.335-.076.423-.135a.298.298 0 0 0 .131-.263v-.021c0-.225-.071-.4-.213-.523-.14-.123-.339-.184-.597-.184-.272 0-.488.06-.649.18a.833.833 0 0 0-.32.448l-1.399-.113c.071-.332.211-.618.419-.86.208-.243.477-.43.806-.56a3.082 3.082 0 0 1 1.151-.2c.303 0 .593.036.87.107.279.071.526.181.742.33.218.15.389.341.515.576.125.232.188.51.188.834V11h-1.435v-.756h-.042c-.088.17-.205.32-.352.45a1.628 1.628 0 0 1-.529.302 2.186 2.186 0 0 1-.714.107Zm.433-1.044c.223 0 .419-.044.59-.131.17-.09.304-.211.401-.363a.935.935 0 0 0 .146-.515v-.578a.826.826 0 0 1-.196.085c-.08.023-.171.046-.273.067-.102.02-.204.037-.305.054l-.277.039a1.878 1.878 0 0 0-.466.124.752.752 0 0 0-.309.23.565.565 0 0 0-.11.356.55.55 0 0 0 .224.472c.152.107.343.16.575.16Zm5.325-2.212V11h-1.512V5.545h1.441v.963h.064c.121-.317.323-.568.607-.753.285-.187.629-.28 1.034-.28.379 0 .709.082.991.248.281.166.5.402.657.71.156.306.234.67.234 1.094V11h-1.513V7.797c.002-.334-.083-.594-.256-.781-.172-.19-.41-.284-.713-.284a1.09 1.09 0 0 0-.54.13.91.91 0 0 0-.362.384 1.327 1.327 0 0 0-.132.6Zm9.247-.746-1.385.085a.721.721 0 0 0-.153-.32.809.809 0 0 0-.309-.23 1.052 1.052 0 0 0-.451-.09c-.234 0-.432.05-.593.15-.161.097-.242.227-.242.39 0 .13.053.24.157.33.104.09.283.163.536.218l.987.198c.53.11.926.284 1.186.526.261.241.391.559.391.952 0 .357-.105.67-.316.94a2.06 2.06 0 0 1-.86.633 3.27 3.27 0 0 1-1.253.224c-.722 0-1.297-.15-1.726-.451a1.756 1.756 0 0 1-.749-1.236l1.488-.078c.045.22.154.388.326.504.173.114.395.17.664.17.266 0 .479-.05.64-.152.163-.105.246-.238.248-.402a.415.415 0 0 0-.174-.337c-.113-.09-.289-.159-.525-.206l-.945-.188c-.533-.107-.929-.291-1.19-.554-.258-.263-.387-.598-.387-1.005 0-.35.095-.652.284-.906a1.83 1.83 0 0 1 .807-.586c.348-.137.755-.206 1.221-.206.689 0 1.231.146 1.627.437.397.291.629.688.696 1.19Z"/>
  <path fill="#A78BFA" d="M49.27 159.108V161h-.908v-3.273h.865v.578h.039a.912.912 0 0 1 .364-.452c.17-.112.377-.168.62-.168.227 0 .425.049.594.149.17.099.3.241.395.426.093.183.14.402.14.656V161h-.907v-1.922c.001-.2-.05-.356-.154-.469a.553.553 0 0 0-.428-.17.646.646 0 0 0-.324.079.545.545 0 0 0-.217.23.795.795 0 0 0-.08.36Zm4.923.499v-1.88h.908V161h-.871v-.594h-.034a.972.972 0 0 1-.37.462 1.08 1.08 0 0 1-.623.175c-.22 0-.412-.05-.578-.15a1.018 1.018 0 0 1-.39-.424 1.464 1.464 0 0 1-.14-.658v-2.084h.907v1.922c.002.193.054.346.156.458a.53.53 0 0 0 .411.169.65.65 0 0 0 .307-.075.58.58 0 0 0 .23-.226.689.689 0 0 0 .087-.368ZM55.827 161v-3.273h.865v.578h.038a.908.908 0 0 1 .341-.454.972.972 0 0 1 .571-.166c.225 0 .416.056.574.168a.792.792 0 0 1 .315.452h.034a.869.869 0 0 1 .362-.45c.176-.114.384-.17.624-.17.306 0 .554.097.744.292.192.193.288.467.288.822V161h-.906v-2.022c0-.182-.048-.318-.145-.409a.507.507 0 0 0-.362-.136.486.486 0 0 0-.386.157.596.596 0 0 0-.138.411V161h-.88v-2.041a.528.528 0 0 0-.139-.384.475.475 0 0 0-.36-.142.5.5 0 0 0-.462.287.675.675 0 0 0-.07.316V161h-.908Zm5.49 0v-4.364h.907v1.641h.028a1.18 1.18 0 0 1 .173-.268.903.903 0 0 1 .298-.231 1.02 1.02 0 0 1 .46-.093c.239 0 .459.062.66.187.203.124.364.311.484.561.121.248.181.56.181.935 0 .365-.058.673-.176.925-.117.25-.276.439-.478.569-.2.127-.424.191-.673.191-.176 0-.326-.029-.45-.087a.915.915 0 0 1-.3-.22 1.102 1.102 0 0 1-.179-.27h-.04V161h-.895Zm.888-1.636c0 .194.027.364.081.509a.757.757 0 0 0 .235.339.592.592 0 0 0 .373.119.59.59 0 0 0 .375-.121.765.765 0 0 0 .232-.341c.054-.147.08-.315.08-.505a1.45 1.45 0 0 0-.078-.499.746.746 0 0 0-.232-.337.588.588 0 0 0-.377-.121.6.6 0 0 0-.375.117.733.733 0 0 0-.233.333c-.054.143-.08.312-.08.507Zm4.4 1.7c-.336 0-.626-.068-.869-.205a1.397 1.397 0 0 1-.558-.583 1.93 1.93 0 0 1-.196-.897c0-.337.065-.633.196-.887a1.45 1.45 0 0 1 .552-.594c.239-.142.518-.213.84-.213.215 0 .416.034.602.104.188.068.351.171.49.309.141.138.25.311.329.52.078.207.117.45.117.729v.249h-2.764v-.563h1.91a.696.696 0 0 0-.086-.347.602.602 0 0 0-.236-.236.667.667 0 0 0-.348-.088.698.698 0 0 0-.366.096.674.674 0 0 0-.247.254.714.714 0 0 0-.092.351v.535c0 .162.03.302.09.42a.647.647 0 0 0 .257.272.778.778 0 0 0 .395.096.87.87 0 0 0 .277-.042.561.561 0 0 0 .352-.337l.839.056a1.15 1.15 0 0 1-.263.528c-.13.149-.3.266-.507.349a1.9 1.9 0 0 1-.713.124ZM68.7 161v-3.273h.88v.571h.034a.846.846 0 0 1 .3-.46.79.79 0 0 1 .486-.158 1.3 1.3 0 0 1 .286.032v.806a1.58 1.58 0 0 0-.383-.049.729.729 0 0 0-.359.087.64.64 0 0 0-.336.592V161H68.7Zm5.323.064a1.68 1.68 0 0 1-.86-.211 1.447 1.447 0 0 1-.555-.592 1.911 1.911 0 0 1-.196-.885 1.9 1.9 0 0 1 .196-.886 1.42 1.42 0 0 1 .556-.592c.241-.142.528-.213.859-.213.33 0 .616.071.856.213.242.14.428.338.558.592a1.9 1.9 0 0 1 .196.886c0 .336-.065.63-.196.885-.13.252-.316.45-.558.592-.24.141-.526.211-.856.211Zm.004-.703c.15 0 .276-.043.377-.128a.796.796 0 0 0 .228-.354c.052-.149.079-.319.079-.509s-.026-.36-.08-.509a.796.796 0 0 0-.227-.354.556.556 0 0 0-.377-.13.576.576 0 0 0-.384.13.804.804 0 0 0-.232.354 1.566 1.566 0 0 0-.077.509c0 .19.026.36.077.509a.81.81 0 0 0 .232.354.585.585 0 0 0 .384.128Zm3.957-2.634v.682h-2.02v-.682h2.02ZM76.425 161v-3.509c0-.237.046-.434.138-.59a.885.885 0 0 1 .384-.352c.162-.078.346-.117.552-.117a2.569 2.569 0 0 1 .641.089l-.162.682a1.223 1.223 0 0 0-.132-.032.82.82 0 0 0-.157-.015c-.134 0-.227.032-.28.094a.384.384 0 0 0-.078.258V161h-.906Zm3.5 0v-3.273h.88v.571h.035a.846.846 0 0 1 .3-.46.79.79 0 0 1 .486-.158 1.302 1.302 0 0 1 .285.032v.806a1.58 1.58 0 0 0-.384-.049.728.728 0 0 0-.357.087.64.64 0 0 0-.337.592V161h-.907Zm3.782.064c-.33 0-.617-.07-.859-.211a1.448 1.448 0 0 1-.556-.592 1.911 1.911 0 0 1-.196-.885c0-.338.066-.633.196-.886.131-.254.316-.452.556-.592.242-.142.528-.213.86-.213.33 0 .616.071.856.213.241.14.427.338.558.592.13.253.196.548.196.886 0 .336-.065.63-.196.885-.13.252-.317.45-.558.592-.24.141-.526.211-.857.211Zm.004-.703c.15 0 .277-.043.377-.128a.798.798 0 0 0 .228-.354c.053-.149.08-.319.08-.509s-.027-.36-.08-.509a.798.798 0 0 0-.227-.354.557.557 0 0 0-.378-.13.576.576 0 0 0-.383.13.804.804 0 0 0-.232.354 1.566 1.566 0 0 0-.077.509c0 .19.026.36.077.509a.8.8 0 0 0 .232.354.586.586 0 0 0 .383.128Zm3.676.703c-.331 0-.617-.07-.859-.211a1.448 1.448 0 0 1-.556-.592 1.911 1.911 0 0 1-.196-.885 1.9 1.9 0 0 1 .196-.886 1.42 1.42 0 0 1 .556-.592c.242-.142.528-.213.859-.213.33 0 .616.071.856.213.242.14.428.338.559.592.13.253.196.548.196.886 0 .336-.066.63-.196.885-.131.252-.317.45-.559.592a1.66 1.66 0 0 1-.856.211Zm.004-.703c.15 0 .276-.043.377-.128a.798.798 0 0 0 .228-.354c.053-.149.079-.319.079-.509s-.026-.36-.079-.509a.798.798 0 0 0-.228-.354.557.557 0 0 0-.377-.13.576.576 0 0 0-.383.13.803.803 0 0 0-.233.354 1.564 1.564 0 0 0-.076.509c0 .19.025.36.076.509.053.149.13.267.233.354a.586.586 0 0 0 .383.128Zm2.197.639v-3.273h.865v.578h.038a.908.908 0 0 1 .341-.454.972.972 0 0 1 .571-.166.96.96 0 0 1 .573.168.792.792 0 0 1 .316.452h.034a.87.87 0 0 1 .362-.45c.176-.114.384-.17.624-.17.306 0 .553.097.744.292.192.193.287.467.287.822V161h-.905v-2.022c0-.182-.048-.318-.145-.409a.507.507 0 0 0-.362-.136.486.486 0 0 0-.386.157.596.596 0 0 0-.138.411V161h-.88v-2.041a.528.528 0 0 0-.139-.384.475.475 0 0 0-.36-.142.5.5 0 0 0-.462.287.674.674 0 0 0-.07.316V161h-.908Zm8.195-2.339-.83.051a.432.432 0 0 0-.092-.192.49.49 0 0 0-.185-.139.638.638 0 0 0-.271-.053c-.14 0-.26.03-.356.09-.096.058-.145.136-.145.234a.25.25 0 0 0 .094.198c.062.054.17.097.322.13l.592.119c.318.066.555.171.712.316a.742.742 0 0 1 .234.571.89.89 0 0 1-.19.564 1.232 1.232 0 0 1-.515.38 1.973 1.973 0 0 1-.752.134c-.434 0-.779-.09-1.036-.271a1.052 1.052 0 0 1-.45-.741l.893-.047a.46.46 0 0 0 .196.303.714.714 0 0 0 .399.102.71.71 0 0 0 .383-.092c.098-.062.148-.143.15-.241a.25.25 0 0 0-.105-.202.757.757 0 0 0-.315-.124l-.567-.113c-.32-.063-.558-.174-.714-.332a.826.826 0 0 1-.232-.603.88.88 0 0 1 .17-.543c.115-.152.277-.269.484-.352a2 2 0 0 1 .733-.123c.413 0 .739.087.976.262.239.174.378.412.417.714Z"/>
  <path stroke="#9F9F9F" stroke-linecap="round" stroke-linejoin="round" stroke-width="3" d="M34 132h76.5" opacity=".1"/>
  <path fill="red" d="m83.48 80.083 7.16-5.453 3.04 3.99-7.16 5.453z"/>
  <path fill="#000" d="M394.026 21 362 44.97l19.941 27.191 16.516-12.287-3.222-4.43 15.711-11.683L394.026 21Z"/>
  <path fill="#FF0" d="m391.197 48.584 2.286 3.09-2.268 1.677-2.285-3.09z"/>
  <path fill="#FF0" d="m391.197 48.584 2.286 3.09-2.268 1.677-2.285-3.09z"/>
  <path fill="#FF0" d="m391.197 48.584 2.286 3.09-2.268 1.677-2.285-3.09z"/>
  <path fill="#FF0" d="m391.197 48.584 2.286 3.09-2.268 1.677-2.285-3.09z"/>
  <path fill="#FF0" d="m391.197 48.584 2.286 3.09-2.268 1.677-2.285-3.09z"/>
  <path fill="#FF0" d="m391.197 48.584 2.286 3.09-2.268 1.677-2.285-3.09z"/>
  <path fill="#FF0" d="m391.197 48.584 2.286 3.09-2.268 1.677-2.285-3.09zm.639-7.336 1.91 2.582-2.268 1.676-1.91-2.581z"/>
  <path fill="#FF0" d="m391.836 41.248 1.91 2.582-2.268 1.676-1.91-2.581z"/>
  <path fill="#FF0" d="m391.836 41.248 1.91 2.582-2.268 1.676-1.91-2.581z"/>
  <path fill="#FF0" d="m391.836 41.248 1.91 2.582-2.268 1.676-1.91-2.581z"/>
  <path fill="#FF0" d="m391.836 41.248 1.91 2.582-2.268 1.676-1.91-2.581z"/>
  <path fill="#FF0" d="m391.836 41.248 1.91 2.582-2.268 1.676-1.91-2.581z"/>
  <path fill="#FF0" d="m391.836 41.248 1.91 2.582-2.268 1.676-1.91-2.581zm-5.489 1.272 2.055 2.78-2.267 1.676-2.055-2.78z"/>
  <path fill="#FF0" d="m386.347 42.52 2.055 2.78-2.267 1.676-2.055-2.78z"/>
  <path fill="#FF0" d="m386.347 42.52 2.055 2.78-2.267 1.676-2.055-2.78z"/>
  <path fill="#FF0" d="m386.347 42.52 2.055 2.78-2.267 1.676-2.055-2.78z"/>
  <path fill="#FF0" d="m386.347 42.52 2.055 2.78-2.267 1.676-2.055-2.78z"/>
  <path fill="#FF0" d="m386.347 42.52 2.055 2.78-2.267 1.676-2.055-2.78z"/>
  <path fill="#FF0" d="m386.347 42.52 2.055 2.78-2.267 1.676-2.055-2.78zm-2.056-2.079 2.631-1.94 1.674 2.27-2.632 1.94z"/>
  <path fill="#FF0" d="m384.291 40.441 2.631-1.94 1.674 2.27-2.632 1.94z"/>
  <path fill="#FF0" d="m384.291 40.441 2.631-1.94 1.674 2.27-2.632 1.94z"/>
  <path fill="#FF0" d="m384.291 40.441 2.631-1.94 1.674 2.27-2.632 1.94z"/>
  <path fill="#FF0" d="m384.291 40.441 2.631-1.94 1.674 2.27-2.632 1.94z"/>
  <path fill="#FF0" d="m384.291 40.441 2.631-1.94 1.674 2.27-2.632 1.94z"/>
  <path fill="#FF0" d="m384.291 40.441 2.631-1.94 1.674 2.27-2.632 1.94zm-14.63 15.134-5.297-7.215 2.273-1.67 5.297 7.216z"/>
  <path fill="#FF0" d="m369.661 55.575-5.297-7.215 2.273-1.67 5.297 7.216z"/>
  <path fill="#FF0" d="m369.661 55.575-5.297-7.215 2.273-1.67 5.297 7.216z"/>
  <path fill="#FF0" d="m369.661 55.575-5.297-7.215 2.273-1.67 5.297 7.216z"/>
  <path fill="#FF0" d="m369.661 55.575-5.297-7.215 2.273-1.67 5.297 7.216z"/>
  <path fill="#FF0" d="m369.661 55.575-5.297-7.215 2.273-1.67 5.297 7.216z"/>
  <path fill="#FF0" d="m369.661 55.575-5.297-7.215 2.273-1.67 5.297 7.216zm28.831-7.999 1.839 2.487-2.267 1.677-1.84-2.487z"/>
  <path fill="#FF0" d="m398.492 47.576 1.839 2.487-2.267 1.677-1.84-2.487z"/>
  <path fill="#FF0" d="m398.492 47.576 1.839 2.487-2.267 1.677-1.84-2.487z"/>
  <path fill="#FF0" d="m398.492 47.576 1.839 2.487-2.267 1.677-1.84-2.487z"/>
  <path fill="#FF0" d="m398.492 47.576 1.839 2.487-2.267 1.677-1.84-2.487z"/>
  <path fill="#FF0" d="m398.492 47.576 1.839 2.487-2.267 1.677-1.84-2.487z"/>
  <path fill="#FF0" d="m398.492 47.576 1.839 2.487-2.267 1.677-1.84-2.487z"/>
  <path fill="#A100FF" d="m376.199 59.58 5.575 7.622-2.276 1.665-5.575-7.622 2.276-1.665Z"/>
  <path fill="#A100FF" d="m376.199 59.58 5.575 7.622-2.276 1.665-5.575-7.622 2.276-1.665Z"/>
  <path fill="#A100FF" d="m376.199 59.58 5.575 7.622-2.276 1.665-5.575-7.622 2.276-1.665ZM407.3 38.637l2.632 3.599-2.397 1.753-2.632-3.6 2.397-1.752Z"/>
  <path fill="#A100FF" d="m407.3 38.637 2.632 3.599-2.397 1.753-2.632-3.6 2.397-1.752Z"/>
  <path fill="#A100FF" d="m407.3 38.637 2.632 3.599-2.397 1.753-2.632-3.6 2.397-1.752Zm-4.226-5.674 2.782 3.804-2.397 1.753-2.782-3.804 2.397-1.753Z"/>
  <path fill="#A100FF" d="m403.074 32.963 2.782 3.804-2.397 1.753-2.782-3.804 2.397-1.753Z"/>
  <path fill="#A100FF" d="m403.074 32.963 2.782 3.804-2.397 1.753-2.782-3.804 2.397-1.753Zm-5.682-7.651 2.783 3.804-2.561 1.873-2.782-3.805 2.56-1.872Z"/>
  <path fill="#A100FF" d="m397.392 25.312 2.783 3.804-2.561 1.873-2.782-3.805 2.56-1.872Z"/>
  <path fill="#A100FF" d="m397.392 25.312 2.783 3.804-2.561 1.873-2.782-3.805 2.56-1.872Zm-22.36 9.912 1.957 2.676-3.851 2.816-1.956-2.675 3.85-2.817Z"/>
  <path fill="#A100FF" d="m375.032 35.224 1.957 2.676-3.851 2.816-1.956-2.675 3.85-2.817Z"/>
  <path fill="#A100FF" d="m375.032 35.224 1.957 2.676-3.851 2.816-1.956-2.675 3.85-2.817Z"/>
  <path fill="#444CD9" d="m388.789 39.33 10.273-7.655 5.237 7.05-10.273 7.654-5.237-7.05Z"/>
  <path fill="#BEBEBE" d="m385.164 42.15 3.021-2.418 5.841 8.057 1.41-1.208 3.424 4.834-4.431 3.223-9.265-12.489Z"/>
  <path fill="#FF8F15" d="m408.529 44.365-3.626-5.036-8.863 6.647 3.626 5.036 8.863-6.647Z"/>
  <path fill="#15C2BA" d="m378.718 35.502-13.495 9.87 8.661 11.683 13.294-10.273-8.46-11.28Zm9.064 12.288-13.294 10.272 8.863 12.085 13.697-10.273-9.266-12.085Zm6.043-23.567-14.1 10.675 4.834 6.446 13.898-10.676-4.632-6.445Z"/>
  <path fill="#000" d="M394.565 69.856 362 94.322l20.248 26.997 16.535-12.149-3.206-4.387 15.692-12.148-16.704-22.779Z"/>
  <path fill="#FF0" d="m388.656 95.166 2.58 3.415-1.346 1.017-2.58-3.415zm7.085.674 2.179 2.884-1.346 1.017-2.179-2.883zm-5.582-5.98 2.363 3.128-1.346 1.017-2.363-3.128zm-3.114-.406 1.151 1.524-2.035 1.538-1.151-1.524zm-.708 2.93 1.596 2.113-1.208.912-1.596-2.112zm-18.578 2.823 4.782 6.33-2.046 1.546-4.783-6.33z"/>
  <path fill="#A100FF" d="m407.188 86.722 2.695 3.549-2.456 1.865-2.695-3.549zm-9.231-12.212 5.33 7.02-2.548 1.936-5.33-7.02zm-23.118 10.194 2.05 2.7-3.39 2.574-2.05-2.7zm2.025 22.61 6.07 7.995-3.39 2.574-6.07-7.995zm3.545-26.997 2.05 2.7-3.39 2.574-2.05-2.7z"/>
  <path fill="#BEBEBE" d="m388.491 89.935-2.869 2.362 8.943 11.643 3.881-2.7-5.4-7.593-1.012.844-3.543-4.556Z"/>
  <path fill="#15C2BA" d="m376.342 86.054-10.461 7.762 8.605 11.305 12.823-9.955-2.024-2.7-2.531 2.025-6.412-8.437Zm-2.7 20.754 14.005-10.967 9.786 13.161-14.342 10.63-9.449-12.824Zm20.585-34.083-11.136 8.436 9.28 12.317 10.968-8.436-9.112-12.317Z"/>
  <path fill="#444CD9" d="m403.676 85.548-10.292 7.93 5.399 7.593 10.293-8.099-5.4-7.424Z"/>
  <path fill="#FF8F15" d="m381.91 82.005-4.218 3.374 5.737 7.762 4.218-3.375-5.737-7.761Z"/>
  <path fill="#7BF071" d="m365.881 95.503-2.025 1.35 7.087 9.449 2.024-1.519-7.086-9.28Z"/>
  <path fill="#000" d="m396.418 115.96-32.38 24.024 20.107 26.897 16.582-12.273-3.134-4.44L413 138.417l-16.582-22.457Z"/>
  <path fill="#FF0" d="m393.464 144.423 2.437 3.137-2.268 1.762-2.437-3.137z"/>
  <path fill="#FF0" d="m393.464 144.423 2.437 3.137-2.268 1.762-2.437-3.137z"/>
  <path fill="#FF0" d="m393.464 144.423 2.437 3.137-2.268 1.762-2.437-3.137zm4.7-3.133 2.437 3.137-2.268 1.762-2.437-3.137z"/>
  <path fill="#FF0" d="m398.164 141.29 2.437 3.137-2.268 1.762-2.437-3.137z"/>
  <path fill="#FF0" d="m398.164 141.29 2.437 3.137-2.268 1.762-2.437-3.137zm-.824-7.289 2.217 2.853-2.268 1.762-2.217-2.853z"/>
  <path fill="#FF0" d="m397.34 134.001 2.217 2.853-2.268 1.762-2.217-2.853z"/>
  <path fill="#FF0" d="m397.34 134.001 2.217 2.853-2.268 1.762-2.217-2.853zm-4.623-1.132 1.658 2.134-2.444 1.898-1.657-2.134z"/>
  <path fill="#FF0" d="m392.717 132.869 1.658 2.134-2.444 1.898-1.657-2.134z"/>
  <path fill="#FF0" d="m392.717 132.869 1.658 2.134-2.444 1.898-1.657-2.134zm-5.606-.458 1.658 2.134-2.444 1.898-1.657-2.134z"/>
  <path fill="#FF0" d="m387.111 132.411 1.658 2.134-2.444 1.898-1.657-2.134z"/>
  <path fill="#FF0" d="m387.111 132.411 1.658 2.134-2.444 1.898-1.657-2.134z"/>
  <path fill="#FF0" d="m386.849 135.545 1.912 2.461-2.443 1.899-1.912-2.462z"/>
  <path fill="#FF0" d="m386.849 135.545 1.912 2.461-2.443 1.899-1.912-2.462z"/>
  <path fill="#FF0" d="m386.849 135.545 1.912 2.461-2.443 1.899-1.912-2.462zm-10.967 15.146 2.527 3.253-2.443 1.898-2.527-3.253z"/>
  <path fill="#FF0" d="m375.882 150.691 2.527 3.253-2.443 1.898-2.527-3.253z"/>
  <path fill="#FF0" d="m375.882 150.691 2.527 3.253-2.443 1.898-2.527-3.253zm6.528 8.617 2.527 3.253-2.52 1.958-2.528-3.253z"/>
  <path fill="#FF0" d="m382.41 159.308 2.527 3.253-2.52 1.958-2.528-3.253z"/>
  <path fill="#FF0" d="m382.41 159.308 2.527 3.253-2.52 1.958-2.528-3.253z"/>
  <path fill="#A100FF" d="m399.345 119.877 2.856 3.818-2.927 2.19-2.856-3.818z"/>
  <path fill="#A100FF" d="m399.345 119.877 2.856 3.818-2.927 2.19-2.856-3.818z"/>
  <path fill="#A100FF" d="m399.345 119.877 2.856 3.818-2.927 2.19-2.856-3.818zm6.119 8.421 2.221 2.969-2.927 2.19-2.221-2.969z"/>
  <path fill="#A100FF" d="m405.464 128.298 2.221 2.969-2.927 2.19-2.221-2.969z"/>
  <path fill="#A100FF" d="m405.464 128.298 2.221 2.969-2.927 2.19-2.221-2.969zm4.143 5.523 2.143 2.865-2.927 2.19-2.143-2.865z"/>
  <path fill="#A100FF" d="m409.607 133.821 2.143 2.865-2.927 2.19-2.143-2.865z"/>
  <path fill="#A100FF" d="m409.607 133.821 2.143 2.865-2.927 2.19-2.143-2.865zm-39.508 8.513 4.598 6.146-2.688 2.011-4.598-6.146z"/>
  <path fill="#A100FF" d="m370.099 142.334 4.598 6.146-2.688 2.011-4.598-6.146z"/>
  <path fill="#A100FF" d="m370.099 142.334 4.598 6.146-2.688 2.011-4.598-6.146zm9.945 13.579 2.503 3.346-2.687 2.011-2.504-3.346z"/>
  <path fill="#A100FF" d="m380.044 155.913 2.503 3.346-2.687 2.011-2.504-3.346z"/>
  <path fill="#A100FF" d="m380.044 155.913 2.503 3.346-2.687 2.011-2.504-3.346z"/>
  <path fill="#FF8F15" d="m402.424 127.711-7.312 5.484 3.917 5.092 7.182-5.484-3.787-5.092Z"/>
  <path fill="#15C2BA" d="m379.836 130.845-12.795 9.27 10.706 14.493 13.318-10.054-6.006-8.226-.653.523-4.57-6.006Zm11.621 14.231-13.318 10.184 7.312 9.793 13.578-10.184-7.572-9.793Zm4.439-26.374-11.229 8.487 6.006 8.356 11.49-8.356-6.267-8.487Z"/>
  <path fill="#444CD9" d="m406.602 133.325-9.662 7.443 4.048 5.875 9.792-7.703-4.178-5.615Z"/>
  <path fill="#EE428C" d="m384.276 127.58-3.917 2.873 4.178 5.484 3.655-2.873-3.916-5.484Z"/>
  <path fill="#ABADAC" d="m388.454 133.717-2.873 2.35 10.576 14.232 4.439-3.525-4.439-6.137 2.35-1.958-4.047-4.962-3.917 2.872-2.089-2.872Z"/>
</svg>
